<?xml version="1.0" standalone="no"?>
<!DOCTYPE svg PUBLIC "-//W3C//DTD SVG 20010904//EN"
 "http://www.w3.org/TR/2001/REC-SVG-20010904/DTD/svg10.dtd">
<svg version="1.0" xmlns="http://www.w3.org/2000/svg"
 width="700.000000pt" height="700.000000pt" viewBox="0 0 700.000000 700.000000"
 preserveAspectRatio="xMidYMid meet">
<metadata>
Created by potrace 1.14, written by Peter Selinger 2001-2017
</metadata>
<g transform="translate(0.000000,700.000000) scale(0.100000,-0.100000)"
fill="#000000" stroke="none">
<path d="M3305 6994 c-746 -49 -1422 -309 -2000 -770 -141 -112 -416 -387
-529 -529 -274 -343 -502 -773 -626 -1185 -50 -169 -104 -430 -126 -620 -24
-198 -24 -582 0 -780 79 -671 332 -1277 752 -1805 113 -141 388 -416 529 -529
526 -419 1134 -672 1805 -752 198 -24 582 -24 780 0 671 79 1278 332 1805 752
141 113 416 388 529 529 419 526 672 1134 752 1805 24 198 24 582 0 780 -80
671 -333 1278 -752 1805 -111 140 -386 415 -529 529 -444 354 -950 592 -1490
701 -93 19 -231 41 -305 50 -134 15 -481 26 -595 19z m1097 -2095 c99 -20 205
-80 316 -179 166 -147 231 -267 239 -440 6 -117 -12 -204 -63 -301 -46 -87
-718 -850 -806 -914 -105 -78 -268 -124 -388 -109 -88 10 -205 53 -249 90 -77
67 -92 175 -34 258 59 84 153 107 263 65 67 -26 123 -19 174 19 44 34 671 743
691 782 21 40 19 113 -4 158 -22 42 -125 136 -179 164 -43 22 -100 23 -146 4
-21 -9 -80 -66 -157 -152 -195 -219 -238 -260 -286 -273 -58 -16 -120 1 -174
47 -73 63 -97 148 -61 224 22 48 338 403 401 451 127 97 306 138 463 106z
m-2564 -137 l122 -117 -535 -560 c-294 -308 -535 -563 -535 -566 0 -3 241
-268 537 -589 l536 -584 -64 -58 c-195 -179 -188 -173 -209 -152 -11 10 -302
327 -648 703 l-629 685 516 540 c284 298 575 603 646 678 72 75 132 137 135
137 3 1 60 -52 128 -117z m4100 -557 c354 -370 642 -678 641 -682 -4 -14
-1284 -1403 -1290 -1400 -15 5 -249 223 -246 228 1 4 241 266 532 583 292 317
531 580 533 584 1 5 -238 260 -532 568 l-535 559 120 118 c67 64 124 117 128
117 3 0 296 -304 649 -675z m-2553 -279 c69 -18 145 -53 174 -79 55 -51 75
-144 46 -215 -44 -104 -158 -148 -275 -107 -60 21 -128 19 -167 -5 -33 -20
-671 -731 -704 -785 -22 -36 -25 -111 -5 -158 14 -34 133 -146 182 -172 44
-22 122 -19 166 8 20 12 111 106 202 208 115 131 174 190 197 198 104 36 220
-18 264 -122 20 -49 19 -100 -4 -145 -11 -20 -98 -125 -194 -233 -185 -207
-235 -250 -354 -296 -61 -24 -82 -27 -193 -28 -106 0 -135 4 -193 23 -94 33
-175 90 -293 207 -77 76 -109 116 -132 165 -42 87 -62 169 -62 257 0 100 15
165 61 258 34 70 83 130 389 475 193 217 371 412 398 434 58 47 145 92 215
111 67 18 218 19 282 1z"/>
</g>
</svg>
