<?xml version="1.0" standalone="no"?>
<!DOCTYPE svg PUBLIC "-//W3C//DTD SVG 20010904//EN"
 "http://www.w3.org/TR/2001/REC-SVG-20010904/DTD/svg10.dtd">
<svg version="1.0" xmlns="http://www.w3.org/2000/svg"
 width="700.000000pt" height="700.000000pt" viewBox="0 0 700.000000 700.000000"
 preserveAspectRatio="xMidYMid meet">
<metadata>
Created by potrace 1.14, written by Peter Selinger 2001-2017
</metadata>
<g transform="translate(0.000000,700.000000) scale(0.100000,-0.100000)"
fill="#000000" stroke="none">
<path d="M3280 6994 c-19 -2 -84 -9 -145 -14 -578 -56 -1180 -283 -1660 -625
-237 -169 -531 -446 -709 -670 -416 -521 -673 -1147 -748 -1820 -17 -155 -17
-575 0 -730 52 -469 198 -931 418 -1327 290 -523 731 -983 1239 -1294 439
-269 920 -432 1460 -496 145 -17 576 -17 730 0 822 91 1556 447 2131 1034 203
206 348 390 487 618 274 449 433 916 499 1465 16 136 16 592 0 730 -86 725
-352 1347 -803 1885 -122 145 -351 370 -494 484 -510 407 -1117 661 -1775 742
-117 15 -553 27 -630 18z m1031 -2324 c80 -24 143 -64 238 -149 89 -79 144
-160 173 -254 17 -57 20 -87 16 -168 -5 -92 -8 -106 -46 -182 -35 -70 -82
-127 -312 -387 -344 -387 -361 -404 -442 -445 -87 -43 -164 -59 -258 -52 -231
16 -353 172 -237 304 54 61 122 78 195 47 49 -20 114 -20 150 1 46 27 584 640
606 689 31 71 18 108 -68 193 -83 81 -129 101 -194 84 -41 -11 -90 -59 -236
-226 -110 -126 -136 -145 -199 -145 -58 0 -94 17 -135 64 -34 39 -48 88 -38
140 10 50 298 375 380 427 120 78 274 100 407 59z m-2616 -242 c0 -3 -191
-207 -425 -452 -234 -246 -426 -451 -428 -456 -2 -5 189 -219 425 -475 235
-256 429 -469 431 -473 2 -8 -184 -182 -196 -182 -10 0 -1037 1120 -1037 1130
0 5 234 254 519 554 l520 545 95 -92 c53 -51 96 -95 96 -99z m4176 -200 c200
-211 435 -456 522 -544 l158 -162 -523 -569 -523 -570 -30 25 c-16 14 -62 55
-103 92 l-72 67 417 455 c230 250 426 464 435 474 17 20 6 33 -417 475 l-434
454 97 92 c53 51 100 93 103 93 3 0 170 -172 370 -382z m-2417 -392 c37 -13
79 -35 93 -48 84 -77 63 -217 -40 -267 -51 -25 -89 -26 -147 -6 -58 20 -109
19 -147 -5 -18 -10 -161 -164 -318 -341 -209 -236 -288 -332 -297 -360 -18
-61 3 -113 71 -177 99 -94 162 -112 233 -69 21 12 97 89 169 170 72 82 146
157 163 168 38 23 97 24 142 3 44 -21 92 -79 100 -121 13 -72 0 -96 -146 -262
-164 -187 -201 -221 -277 -260 -82 -41 -134 -53 -228 -52 -151 0 -258 53 -404
199 -123 123 -160 208 -161 362 0 143 38 231 162 371 405 460 541 609 589 642
129 88 293 108 443 53z"/>
</g>
</svg>
