<svg width="131" height="21" viewBox="0 0 131 21" fill="none" xmlns="http://www.w3.org/2000/svg">
<path d="M5.075 2.475C7.675 2.475 9.66667 2.94167 11.05 3.875C12.4333 4.79167 13.125 6.225 13.125 8.175C13.125 9.39167 12.8417 10.3833 12.275 11.15C11.725 11.9 10.925 12.4917 9.875 12.925C10.225 13.3583 10.5917 13.8583 10.975 14.425C11.3583 14.975 11.7333 15.5583 12.1 16.175C12.4833 16.775 12.85 17.4083 13.2 18.075C13.55 18.725 13.875 19.3667 14.175 20H9.8C9.48333 19.4333 9.15833 18.8583 8.825 18.275C8.50833 17.6917 8.175 17.125 7.825 16.575C7.49167 16.025 7.15833 15.5083 6.825 15.025C6.49167 14.525 6.15833 14.075 5.825 13.675H3.9V20H1.41561e-07V2.925C0.85 2.75833 1.725 2.64167 2.625 2.575C3.54167 2.50833 4.35833 2.475 5.075 2.475ZM5.3 5.8C5.01667 5.8 4.75833 5.80833 4.525 5.825C4.30833 5.84167 4.1 5.85833 3.9 5.875V10.575H5C6.46667 10.575 7.51667 10.3917 8.15 10.025C8.78333 9.65833 9.1 9.03333 9.1 8.15C9.1 7.3 8.775 6.7 8.125 6.35C7.49167 5.98333 6.55 5.8 5.3 5.8ZM15.165 13.525C15.165 12.3583 15.34 11.3417 15.69 10.475C16.0567 9.59167 16.5317 8.85833 17.115 8.275C17.6984 7.69167 18.365 7.25 19.115 6.95C19.8817 6.65 20.665 6.5 21.465 6.5C23.3317 6.5 24.8067 7.075 25.89 8.225C26.9734 9.35833 27.515 11.0333 27.515 13.25C27.515 13.4667 27.5067 13.7083 27.49 13.975C27.4734 14.225 27.4567 14.45 27.44 14.65H18.99C19.0734 15.4167 19.4317 16.025 20.065 16.475C20.6984 16.925 21.5484 17.15 22.615 17.15C23.2984 17.15 23.965 17.0917 24.615 16.975C25.2817 16.8417 25.8234 16.6833 26.24 16.5L26.74 19.525C26.54 19.625 26.2734 19.725 25.94 19.825C25.6067 19.925 25.2317 20.0083 24.815 20.075C24.415 20.1583 23.9817 20.225 23.515 20.275C23.0484 20.325 22.5817 20.35 22.115 20.35C20.9317 20.35 19.8984 20.175 19.015 19.825C18.1484 19.475 17.4234 19 16.84 18.4C16.2734 17.7833 15.8484 17.0583 15.565 16.225C15.2984 15.3917 15.165 14.4917 15.165 13.525ZM23.915 12.1C23.8984 11.7833 23.84 11.475 23.74 11.175C23.6567 10.875 23.515 10.6083 23.315 10.375C23.1317 10.1417 22.89 9.95 22.59 9.8C22.3067 9.65 21.9484 9.575 21.515 9.575C21.0984 9.575 20.74 9.65 20.44 9.8C20.14 9.93333 19.89 10.1167 19.69 10.35C19.49 10.5833 19.3317 10.8583 19.215 11.175C19.115 11.475 19.04 11.7833 18.99 12.1H23.915ZM33.5646 13.325C33.5646 14.475 33.823 15.4 34.3396 16.1C34.8563 16.8 35.623 17.15 36.6396 17.15C36.973 17.15 37.2813 17.1417 37.5646 17.125C37.848 17.0917 38.0813 17.0583 38.2646 17.025V10.25C38.0313 10.1 37.723 9.975 37.3396 9.875C36.973 9.775 36.598 9.725 36.2146 9.725C34.448 9.725 33.5646 10.925 33.5646 13.325ZM41.9896 19.575C41.6563 19.675 41.273 19.775 40.8396 19.875C40.4063 19.9583 39.948 20.0333 39.4646 20.1C38.998 20.1667 38.5146 20.2167 38.0146 20.25C37.5313 20.3 37.0646 20.325 36.6146 20.325C35.5313 20.325 34.5646 20.1667 33.7146 19.85C32.8646 19.5333 32.148 19.0833 31.5646 18.5C30.9813 17.9 30.5313 17.1833 30.2146 16.35C29.9146 15.5 29.7646 14.55 29.7646 13.5C29.7646 12.4333 29.898 11.475 30.1646 10.625C30.4313 9.75833 30.8146 9.025 31.3146 8.425C31.8146 7.825 32.423 7.36667 33.1396 7.05C33.873 6.73333 34.7063 6.575 35.6396 6.575C36.1563 6.575 36.6146 6.625 37.0146 6.725C37.4313 6.825 37.848 6.96667 38.2646 7.15V1.2L41.9896 0.599999V19.575ZM56.7025 19.55C56.0692 19.7333 55.2525 19.9 54.2525 20.05C53.2525 20.2167 52.2025 20.3 51.1025 20.3C49.9859 20.3 49.0525 20.15 48.3025 19.85C47.5692 19.55 46.9859 19.1333 46.5525 18.6C46.1192 18.05 45.8109 17.4 45.6275 16.65C45.4442 15.9 45.3525 15.075 45.3525 14.175V6.85H49.0775V13.725C49.0775 14.925 49.2359 15.7917 49.5525 16.325C49.8692 16.8583 50.4609 17.125 51.3275 17.125C51.5942 17.125 51.8775 17.1167 52.1775 17.1C52.4775 17.0667 52.7442 17.0333 52.9775 17V6.85H56.7025V19.55ZM59.5742 13.425C59.5742 12.475 59.7242 11.5833 60.0242 10.75C60.3409 9.9 60.7909 9.16667 61.3742 8.55C61.9576 7.91667 62.6659 7.41667 63.4992 7.05C64.3326 6.68333 65.2826 6.5 66.3492 6.5C67.0492 6.5 67.6909 6.56667 68.2742 6.7C68.8576 6.81667 69.4242 6.99167 69.9742 7.225L69.1992 10.2C68.8492 10.0667 68.4659 9.95 68.0492 9.85C67.6326 9.75 67.1659 9.7 66.6492 9.7C65.5492 9.7 64.7242 10.0417 64.1742 10.725C63.6409 11.4083 63.3742 12.3083 63.3742 13.425C63.3742 14.6083 63.6242 15.525 64.1242 16.175C64.6409 16.825 65.5326 17.15 66.7992 17.15C67.2492 17.15 67.7326 17.1083 68.2492 17.025C68.7659 16.9417 69.2409 16.8083 69.6742 16.625L70.1992 19.675C69.7659 19.8583 69.2242 20.0167 68.5742 20.15C67.9242 20.2833 67.2076 20.35 66.4242 20.35C65.2242 20.35 64.1909 20.175 63.3242 19.825C62.4576 19.4583 61.7409 18.9667 61.1742 18.35C60.6242 17.7333 60.2159 17.0083 59.9492 16.175C59.6992 15.325 59.5742 14.4083 59.5742 13.425ZM71.4395 13.525C71.4395 12.3583 71.6145 11.3417 71.9645 10.475C72.3311 9.59167 72.8061 8.85833 73.3895 8.275C73.9728 7.69167 74.6395 7.25 75.3895 6.95C76.1561 6.65 76.9395 6.5 77.7395 6.5C79.6061 6.5 81.0811 7.075 82.1645 8.225C83.2478 9.35833 83.7895 11.0333 83.7895 13.25C83.7895 13.4667 83.7811 13.7083 83.7645 13.975C83.7478 14.225 83.7311 14.45 83.7145 14.65H75.2645C75.3478 15.4167 75.7061 16.025 76.3395 16.475C76.9728 16.925 77.8228 17.15 78.8895 17.15C79.5728 17.15 80.2395 17.0917 80.8895 16.975C81.5561 16.8417 82.0978 16.6833 82.5145 16.5L83.0145 19.525C82.8145 19.625 82.5478 19.725 82.2145 19.825C81.8811 19.925 81.5061 20.0083 81.0895 20.075C80.6895 20.1583 80.2561 20.225 79.7895 20.275C79.3228 20.325 78.8561 20.35 78.3895 20.35C77.2061 20.35 76.1728 20.175 75.2895 19.825C74.4228 19.475 73.6978 19 73.1145 18.4C72.5478 17.7833 72.1228 17.0583 71.8395 16.225C71.5728 15.3917 71.4395 14.4917 71.4395 13.525ZM80.1895 12.1C80.1728 11.7833 80.1145 11.475 80.0145 11.175C79.9311 10.875 79.7895 10.6083 79.5895 10.375C79.4061 10.1417 79.1645 9.95 78.8645 9.8C78.5811 9.65 78.2228 9.575 77.7895 9.575C77.3728 9.575 77.0145 9.65 76.7145 9.8C76.4145 9.93333 76.1645 10.1167 75.9645 10.35C75.7645 10.5833 75.6061 10.8583 75.4895 11.175C75.3895 11.475 75.3145 11.7833 75.2645 12.1H80.1895ZM89.8391 13.325C89.8391 14.475 90.0974 15.4 90.6141 16.1C91.1307 16.8 91.8974 17.15 92.9141 17.15C93.2474 17.15 93.5557 17.1417 93.8391 17.125C94.1224 17.0917 94.3557 17.0583 94.5391 17.025V10.25C94.3057 10.1 93.9974 9.975 93.6141 9.875C93.2474 9.775 92.8724 9.725 92.4891 9.725C90.7224 9.725 89.8391 10.925 89.8391 13.325ZM98.2641 19.575C97.9307 19.675 97.5474 19.775 97.1141 19.875C96.6807 19.9583 96.2224 20.0333 95.7391 20.1C95.2724 20.1667 94.7891 20.2167 94.2891 20.25C93.8057 20.3 93.3391 20.325 92.8891 20.325C91.8057 20.325 90.8391 20.1667 89.9891 19.85C89.1391 19.5333 88.4224 19.0833 87.8391 18.5C87.2557 17.9 86.8057 17.1833 86.4891 16.35C86.1891 15.5 86.0391 14.55 86.0391 13.5C86.0391 12.4333 86.1724 11.475 86.4391 10.625C86.7057 9.75833 87.0891 9.025 87.5891 8.425C88.0891 7.825 88.6974 7.36667 89.4141 7.05C90.1474 6.73333 90.9807 6.575 91.9141 6.575C92.4307 6.575 92.8891 6.625 93.2891 6.725C93.7057 6.825 94.1224 6.96667 94.5391 7.15V1.2L98.2641 0.599999V19.575ZM105.402 18.025C105.402 18.775 105.16 19.35 104.677 19.75C104.21 20.1333 103.677 20.325 103.077 20.325C102.477 20.325 101.935 20.1333 101.452 19.75C100.985 19.35 100.752 18.775 100.752 18.025C100.752 17.275 100.985 16.7083 101.452 16.325C101.935 15.925 102.477 15.725 103.077 15.725C103.677 15.725 104.21 15.925 104.677 16.325C105.16 16.7083 105.402 17.275 105.402 18.025ZM107.779 3.575L111.504 2.975V6.85H115.979V9.95H111.504V14.575C111.504 15.3583 111.638 15.9833 111.904 16.45C112.188 16.9167 112.746 17.15 113.579 17.15C113.979 17.15 114.388 17.1167 114.804 17.05C115.238 16.9667 115.629 16.8583 115.979 16.725L116.504 19.625C116.054 19.8083 115.554 19.9667 115.004 20.1C114.454 20.2333 113.779 20.3 112.979 20.3C111.963 20.3 111.121 20.1667 110.454 19.9C109.788 19.6167 109.254 19.2333 108.854 18.75C108.454 18.25 108.171 17.65 108.004 16.95C107.854 16.25 107.779 15.475 107.779 14.625V3.575ZM130.824 13.4C130.824 14.4333 130.674 15.3833 130.374 16.25C130.074 17.1 129.641 17.8333 129.074 18.45C128.508 19.05 127.824 19.5167 127.024 19.85C126.241 20.1833 125.358 20.35 124.374 20.35C123.408 20.35 122.524 20.1833 121.724 19.85C120.941 19.5167 120.266 19.05 119.699 18.45C119.133 17.8333 118.691 17.1 118.374 16.25C118.058 15.3833 117.899 14.4333 117.899 13.4C117.899 12.3667 118.058 11.425 118.374 10.575C118.708 9.725 119.158 9 119.724 8.4C120.308 7.8 120.991 7.33333 121.774 7C122.574 6.66667 123.441 6.5 124.374 6.5C125.324 6.5 126.191 6.66667 126.974 7C127.774 7.33333 128.458 7.8 129.024 8.4C129.591 9 130.033 9.725 130.349 10.575C130.666 11.425 130.824 12.3667 130.824 13.4ZM127.024 13.4C127.024 12.25 126.791 11.35 126.324 10.7C125.874 10.0333 125.224 9.7 124.374 9.7C123.524 9.7 122.866 10.0333 122.399 10.7C121.933 11.35 121.699 12.25 121.699 13.4C121.699 14.55 121.933 15.4667 122.399 16.15C122.866 16.8167 123.524 17.15 124.374 17.15C125.224 17.15 125.874 16.8167 126.324 16.15C126.791 15.4667 127.024 14.55 127.024 13.4Z" fill="#1C1E21"/>
</svg>
