<svg width="1453" height="592" viewBox="0 0 1453 592" fill="none" xmlns="http://www.w3.org/2000/svg">
<mask id="mask0_6907_192562" style="mask-type:alpha" maskUnits="userSpaceOnUse" x="0" y="-38" width="1453" height="630">
<rect y="-38" width="1453" height="630" fill="url(#paint0_linear_6907_192562)"/>
</mask>
<g mask="url(#mask0_6907_192562)">
<path d="M52.2487 -36.6991C53.0229 -37.1466 53.9771 -37.1466 54.7513 -36.6991L93.7513 -14.1522C94.524 -13.7054 95 -12.8805 95 -11.9879V33.1129C95 34.0055 94.524 34.8304 93.7513 35.2772L54.7513 57.8241C53.9771 58.2716 53.0229 58.2716 52.2487 57.8241L13.2487 35.2772C12.4759 34.8304 12 34.0055 12 33.1129V-11.9879C12 -12.8805 12.4759 -13.7054 13.2487 -14.1522L52.2487 -36.6991Z" fill="white" stroke="#EDE9FE"/>
<path d="M135.249 -36.6991C136.023 -37.1466 136.977 -37.1466 137.751 -36.6991L176.751 -14.1522C177.524 -13.7054 178 -12.8805 178 -11.9879V33.1129C178 34.0055 177.524 34.8304 176.751 35.2772L137.751 57.8241C136.977 58.2716 136.023 58.2716 135.249 57.8241L96.2487 35.2772C95.4759 34.8304 95 34.0055 95 33.1129V-11.9879C95 -12.8805 95.4759 -13.7054 96.2487 -14.1522L135.249 -36.6991Z" fill="white" stroke="#EDE9FE"/>
<path d="M218.249 -36.6991C219.023 -37.1466 219.977 -37.1466 220.751 -36.6991L259.751 -14.1522C260.524 -13.7054 261 -12.8805 261 -11.9879V33.1129C261 34.0055 260.524 34.8304 259.751 35.2772L220.751 57.8241C219.977 58.2716 219.023 58.2716 218.249 57.8241L179.249 35.2772C178.476 34.8304 178 34.0055 178 33.1129V-11.9879C178 -12.8805 178.476 -13.7054 179.249 -14.1522L218.249 -36.6991Z" fill="white" stroke="#EDE9FE"/>
<path d="M301.249 -36.6991C302.023 -37.1466 302.977 -37.1466 303.751 -36.6991L342.751 -14.1522C343.524 -13.7054 344 -12.8805 344 -11.9879V33.1129C344 34.0055 343.524 34.8304 342.751 35.2772L303.751 57.8241C302.977 58.2716 302.023 58.2716 301.249 57.8241L262.249 35.2772C261.476 34.8304 261 34.0055 261 33.1129V-11.9879C261 -12.8805 261.476 -13.7054 262.249 -14.1522L301.249 -36.6991Z" fill="white" stroke="#EDE9FE"/>
<path d="M384.249 -36.6991C385.023 -37.1466 385.977 -37.1466 386.751 -36.6991L425.751 -14.1522C426.524 -13.7054 427 -12.8805 427 -11.9879V33.1129C427 34.0055 426.524 34.8304 425.751 35.2772L386.751 57.8241C385.977 58.2716 385.023 58.2716 384.249 57.8241L345.249 35.2772C344.476 34.8304 344 34.0055 344 33.1129V-11.9879C344 -12.8805 344.476 -13.7054 345.249 -14.1522L384.249 -36.6991Z" fill="white" stroke="#EDE9FE"/>
<path d="M467.249 -36.6991C468.023 -37.1466 468.977 -37.1466 469.751 -36.6991L508.751 -14.1522C509.524 -13.7054 510 -12.8805 510 -11.9879V33.1129C510 34.0055 509.524 34.8304 508.751 35.2772L469.751 57.8241C468.977 58.2716 468.023 58.2716 467.249 57.8241L428.249 35.2772C427.476 34.8304 427 34.0055 427 33.1129V-11.9879C427 -12.8805 427.476 -13.7054 428.249 -14.1522L467.249 -36.6991Z" fill="white" stroke="#EDE9FE"/>
<path d="M550.249 -36.6991C551.023 -37.1466 551.977 -37.1466 552.751 -36.6991L591.751 -14.1522C592.524 -13.7054 593 -12.8805 593 -11.9879V33.1129C593 34.0055 592.524 34.8304 591.751 35.2772L552.751 57.8241C551.977 58.2716 551.023 58.2716 550.249 57.8241L511.249 35.2772C510.476 34.8304 510 34.0055 510 33.1129V-11.9879C510 -12.8805 510.476 -13.7054 511.249 -14.1522L550.249 -36.6991Z" fill="white" stroke="#EDE9FE"/>
<path d="M633.249 -36.6991C634.023 -37.1466 634.977 -37.1466 635.751 -36.6991L674.751 -14.1522C675.524 -13.7054 676 -12.8805 676 -11.9879V33.1129C676 34.0055 675.524 34.8304 674.751 35.2772L635.751 57.8241C634.977 58.2716 634.023 58.2716 633.249 57.8241L594.249 35.2772C593.476 34.8304 593 34.0055 593 33.1129V-11.9879C593 -12.8805 593.476 -13.7054 594.249 -14.1522L633.249 -36.6991Z" fill="white" stroke="#EDE9FE"/>
<path d="M716.249 -36.6991C717.023 -37.1466 717.977 -37.1466 718.751 -36.6991L757.751 -14.1522C758.524 -13.7054 759 -12.8805 759 -11.9879V33.1129C759 34.0055 758.524 34.8304 757.751 35.2772L718.751 57.8241C717.977 58.2716 717.023 58.2716 716.249 57.8241L677.249 35.2772C676.476 34.8304 676 34.0055 676 33.1129V-11.9879C676 -12.8805 676.476 -13.7054 677.249 -14.1522L716.249 -36.6991Z" fill="white" stroke="#EDE9FE"/>
<path d="M799.249 -36.6991C800.023 -37.1466 800.977 -37.1466 801.751 -36.6991L840.751 -14.1522C841.524 -13.7054 842 -12.8805 842 -11.9879V33.1129C842 34.0055 841.524 34.8304 840.751 35.2772L801.751 57.8241C800.977 58.2716 800.023 58.2716 799.249 57.8241L760.249 35.2772C759.476 34.8304 759 34.0055 759 33.1129V-11.9879C759 -12.8805 759.476 -13.7054 760.249 -14.1522L799.249 -36.6991Z" fill="#F5F3FF" stroke="#EDE9FE"/>
<path d="M882.249 -36.6991C883.023 -37.1466 883.977 -37.1466 884.751 -36.6991L923.751 -14.1522C924.524 -13.7054 925 -12.8805 925 -11.9879V33.1129C925 34.0055 924.524 34.8304 923.751 35.2772L884.751 57.8241C883.977 58.2716 883.023 58.2716 882.249 57.8241L843.249 35.2772C842.476 34.8304 842 34.0055 842 33.1129V-11.9879C842 -12.8805 842.476 -13.7054 843.249 -14.1522L882.249 -36.6991Z" fill="white" stroke="#EDE9FE"/>
<path d="M965.249 -36.6991C966.023 -37.1466 966.977 -37.1466 967.751 -36.6991L1006.75 -14.1522C1007.52 -13.7054 1008 -12.8805 1008 -11.9879V33.1129C1008 34.0055 1007.52 34.8304 1006.75 35.2772L967.751 57.8241C966.977 58.2716 966.023 58.2716 965.249 57.8241L926.249 35.2772C925.476 34.8304 925 34.0055 925 33.1129V-11.9879C925 -12.8805 925.476 -13.7054 926.249 -14.1522L965.249 -36.6991Z" fill="white" stroke="#EDE9FE"/>
<path d="M1048.25 -36.6991C1049.02 -37.1466 1049.98 -37.1466 1050.75 -36.6991L1089.75 -14.1522C1090.52 -13.7054 1091 -12.8805 1091 -11.9879V33.1129C1091 34.0055 1090.52 34.8304 1089.75 35.2772L1050.75 57.8241C1049.98 58.2716 1049.02 58.2716 1048.25 57.8241L1009.25 35.2772C1008.48 34.8304 1008 34.0055 1008 33.1129V-11.9879C1008 -12.8805 1008.48 -13.7054 1009.25 -14.1522L1048.25 -36.6991Z" fill="white" stroke="#EDE9FE"/>
<path d="M1131.25 -36.6991C1132.02 -37.1466 1132.98 -37.1466 1133.75 -36.6991L1172.75 -14.1522C1173.52 -13.7054 1174 -12.8805 1174 -11.9879V33.1129C1174 34.0055 1173.52 34.8304 1172.75 35.2772L1133.75 57.8241C1132.98 58.2716 1132.02 58.2716 1131.25 57.8241L1092.25 35.2772C1091.48 34.8304 1091 34.0055 1091 33.1129V-11.9879C1091 -12.8805 1091.48 -13.7054 1092.25 -14.1522L1131.25 -36.6991Z" fill="white" stroke="#EDE9FE"/>
<path d="M1214.25 -36.6991C1215.02 -37.1466 1215.98 -37.1466 1216.75 -36.6991L1255.75 -14.1522C1256.52 -13.7054 1257 -12.8805 1257 -11.9879V33.1129C1257 34.0055 1256.52 34.8304 1255.75 35.2772L1216.75 57.8241C1215.98 58.2716 1215.02 58.2716 1214.25 57.8241L1175.25 35.2772C1174.48 34.8304 1174 34.0055 1174 33.1129V-11.9879C1174 -12.8805 1174.48 -13.7054 1175.25 -14.1522L1214.25 -36.6991Z" fill="white" stroke="#EDE9FE"/>
<path d="M1297.25 -36.6991C1298.02 -37.1466 1298.98 -37.1466 1299.75 -36.6991L1338.75 -14.1522C1339.52 -13.7054 1340 -12.8805 1340 -11.9879V33.1129C1340 34.0055 1339.52 34.8304 1338.75 35.2772L1299.75 57.8241C1298.98 58.2716 1298.02 58.2716 1297.25 57.8241L1258.25 35.2772C1257.48 34.8304 1257 34.0055 1257 33.1129V-11.9879C1257 -12.8805 1257.48 -13.7054 1258.25 -14.1522L1297.25 -36.6991Z" fill="white" stroke="#EDE9FE"/>
<path d="M1380.25 -36.6991C1381.02 -37.1466 1381.98 -37.1466 1382.75 -36.6991L1421.75 -14.1522C1422.52 -13.7054 1423 -12.8805 1423 -11.9879V33.1129C1423 34.0055 1422.52 34.8304 1421.75 35.2772L1382.75 57.8241C1381.98 58.2716 1381.02 58.2716 1380.25 57.8241L1341.25 35.2772C1340.48 34.8304 1340 34.0055 1340 33.1129V-11.9879C1340 -12.8805 1340.48 -13.7054 1341.25 -14.1522L1380.25 -36.6991Z" fill="white" stroke="#EDE9FE"/>
<path d="M1463.25 -36.6991C1464.02 -37.1466 1464.98 -37.1466 1465.75 -36.6991L1504.75 -14.1522C1505.52 -13.7054 1506 -12.8805 1506 -11.9879V33.1129C1506 34.0055 1505.52 34.8304 1504.75 35.2772L1465.75 57.8241C1464.98 58.2716 1464.02 58.2716 1463.25 57.8241L1424.25 35.2772C1423.48 34.8304 1423 34.0055 1423 33.1129V-11.9879C1423 -12.8805 1423.48 -13.7054 1424.25 -14.1522L1463.25 -36.6991Z" fill="white" stroke="#EDE9FE"/>
<path d="M10.7487 34.4259C11.5229 33.9784 12.4771 33.9784 13.2513 34.4259L52.2513 56.9728C53.024 57.4196 53.5 58.2445 53.5 59.1371V104.238C53.5 105.131 53.024 105.955 52.2513 106.402L13.2513 128.949C12.4771 129.397 11.5229 129.397 10.7487 128.949L-28.2513 106.402C-29.0241 105.955 -29.5 105.131 -29.5 104.238V59.1371C-29.5 58.2445 -29.0241 57.4196 -28.2513 56.9728L10.7487 34.4259Z" fill="white" stroke="#EDE9FE"/>
<path d="M93.7487 34.4259C94.5229 33.9784 95.4771 33.9784 96.2513 34.4259L135.251 56.9728C136.024 57.4196 136.5 58.2445 136.5 59.1371V104.238C136.5 105.131 136.024 105.955 135.251 106.402L96.2513 128.949C95.4771 129.397 94.5229 129.397 93.7487 128.949L54.7487 106.402C53.9759 105.955 53.5 105.131 53.5 104.238V59.1371C53.5 58.2445 53.9759 57.4196 54.7487 56.9728L93.7487 34.4259Z" fill="white" stroke="#EDE9FE"/>
<path d="M176.749 34.4259C177.523 33.9784 178.477 33.9784 179.251 34.4259L218.251 56.9728C219.024 57.4196 219.5 58.2445 219.5 59.1371V104.238C219.5 105.131 219.024 105.955 218.251 106.402L179.251 128.949C178.477 129.397 177.523 129.397 176.749 128.949L137.749 106.402C136.976 105.955 136.5 105.131 136.5 104.238V59.1371C136.5 58.2445 136.976 57.4196 137.749 56.9728L176.749 34.4259Z" fill="white" stroke="#EDE9FE"/>
<path d="M259.749 34.4259C260.523 33.9784 261.477 33.9784 262.251 34.4259L301.251 56.9728C302.024 57.4196 302.5 58.2445 302.5 59.1371V104.238C302.5 105.131 302.024 105.955 301.251 106.402L262.251 128.949C261.477 129.397 260.523 129.397 259.749 128.949L220.749 106.402C219.976 105.955 219.5 105.131 219.5 104.238V59.1371C219.5 58.2445 219.976 57.4196 220.749 56.9728L259.749 34.4259Z" fill="white" stroke="#EDE9FE"/>
<path d="M342.749 34.4259C343.523 33.9784 344.477 33.9784 345.251 34.4259L384.251 56.9728C385.024 57.4196 385.5 58.2445 385.5 59.1371V104.238C385.5 105.131 385.024 105.955 384.251 106.402L345.251 128.949C344.477 129.397 343.523 129.397 342.749 128.949L303.749 106.402C302.976 105.955 302.5 105.131 302.5 104.238V59.1371C302.5 58.2445 302.976 57.4196 303.749 56.9728L342.749 34.4259Z" fill="white" stroke="#EDE9FE"/>
<path d="M425.749 34.4259C426.523 33.9784 427.477 33.9784 428.251 34.4259L467.251 56.9728C468.024 57.4196 468.5 58.2445 468.5 59.1371V104.238C468.5 105.131 468.024 105.955 467.251 106.402L428.251 128.949C427.477 129.397 426.523 129.397 425.749 128.949L386.749 106.402C385.976 105.955 385.5 105.131 385.5 104.238V59.1371C385.5 58.2445 385.976 57.4196 386.749 56.9728L425.749 34.4259Z" fill="white" stroke="#EDE9FE"/>
<path d="M508.749 34.4259C509.523 33.9784 510.477 33.9784 511.251 34.4259L550.251 56.9728C551.024 57.4196 551.5 58.2445 551.5 59.1371V104.238C551.5 105.131 551.024 105.955 550.251 106.402L511.251 128.949C510.477 129.397 509.523 129.397 508.749 128.949L469.749 106.402C468.976 105.955 468.5 105.131 468.5 104.238V59.1371C468.5 58.2445 468.976 57.4196 469.749 56.9728L508.749 34.4259Z" fill="white" stroke="#EDE9FE"/>
<path d="M591.749 34.4259C592.523 33.9784 593.477 33.9784 594.251 34.4259L633.251 56.9728C634.024 57.4196 634.5 58.2445 634.5 59.1371V104.238C634.5 105.131 634.024 105.955 633.251 106.402L594.251 128.949C593.477 129.397 592.523 129.397 591.749 128.949L552.749 106.402C551.976 105.955 551.5 105.131 551.5 104.238V59.1371C551.5 58.2445 551.976 57.4196 552.749 56.9728L591.749 34.4259Z" fill="white" stroke="#EDE9FE"/>
<path d="M674.749 34.4259C675.523 33.9784 676.477 33.9784 677.251 34.4259L716.251 56.9728C717.024 57.4196 717.5 58.2445 717.5 59.1371V104.238C717.5 105.131 717.024 105.955 716.251 106.402L677.251 128.949C676.477 129.397 675.523 129.397 674.749 128.949L635.749 106.402C634.976 105.955 634.5 105.131 634.5 104.238V59.1371C634.5 58.2445 634.976 57.4196 635.749 56.9728L674.749 34.4259Z" fill="white" stroke="#EDE9FE"/>
<path d="M757.749 34.4259C758.523 33.9784 759.477 33.9784 760.251 34.4259L799.251 56.9728C800.024 57.4196 800.5 58.2445 800.5 59.1371V104.238C800.5 105.131 800.024 105.955 799.251 106.402L760.251 128.949C759.477 129.397 758.523 129.397 757.749 128.949L718.749 106.402C717.976 105.955 717.5 105.131 717.5 104.238V59.1371C717.5 58.2445 717.976 57.4196 718.749 56.9728L757.749 34.4259Z" fill="white" stroke="#EDE9FE"/>
<path d="M840.749 34.4259C841.523 33.9784 842.477 33.9784 843.251 34.4259L882.251 56.9728C883.024 57.4196 883.5 58.2445 883.5 59.1371V104.238C883.5 105.131 883.024 105.955 882.251 106.402L843.251 128.949C842.477 129.397 841.523 129.397 840.749 128.949L801.749 106.402C800.976 105.955 800.5 105.131 800.5 104.238V59.1371C800.5 58.2445 800.976 57.4196 801.749 56.9728L840.749 34.4259Z" fill="white" stroke="#EDE9FE"/>
<path d="M923.749 34.4259C924.523 33.9784 925.477 33.9784 926.251 34.4259L965.251 56.9728C966.024 57.4196 966.5 58.2445 966.5 59.1371V104.238C966.5 105.131 966.024 105.955 965.251 106.402L926.251 128.949C925.477 129.397 924.523 129.397 923.749 128.949L884.749 106.402C883.976 105.955 883.5 105.131 883.5 104.238V59.1371C883.5 58.2445 883.976 57.4196 884.749 56.9728L923.749 34.4259Z" fill="white" stroke="#EDE9FE"/>
<path d="M1006.75 34.4259C1007.52 33.9784 1008.48 33.9784 1009.25 34.4259L1048.25 56.9728C1049.02 57.4196 1049.5 58.2445 1049.5 59.1371V104.238C1049.5 105.131 1049.02 105.955 1048.25 106.402L1009.25 128.949C1008.48 129.397 1007.52 129.397 1006.75 128.949L967.749 106.402C966.976 105.955 966.5 105.131 966.5 104.238V59.1371C966.5 58.2445 966.976 57.4196 967.749 56.9728L1006.75 34.4259Z" fill="white" stroke="#EDE9FE"/>
<path d="M1089.75 34.4259C1090.52 33.9784 1091.48 33.9784 1092.25 34.4259L1131.25 56.9728C1132.02 57.4196 1132.5 58.2445 1132.5 59.1371V104.238C1132.5 105.131 1132.02 105.955 1131.25 106.402L1092.25 128.949C1091.48 129.397 1090.52 129.397 1089.75 128.949L1050.75 106.402C1049.98 105.955 1049.5 105.131 1049.5 104.238V59.1371C1049.5 58.2445 1049.98 57.4196 1050.75 56.9728L1089.75 34.4259Z" fill="white" stroke="#EDE9FE"/>
<path d="M1172.75 34.4259C1173.52 33.9784 1174.48 33.9784 1175.25 34.4259L1214.25 56.9728C1215.02 57.4196 1215.5 58.2445 1215.5 59.1371V104.238C1215.5 105.131 1215.02 105.955 1214.25 106.402L1175.25 128.949C1174.48 129.397 1173.52 129.397 1172.75 128.949L1133.75 106.402C1132.98 105.955 1132.5 105.131 1132.5 104.238V59.1371C1132.5 58.2445 1132.98 57.4196 1133.75 56.9728L1172.75 34.4259Z" fill="white" stroke="#EDE9FE"/>
<path d="M1255.75 34.4259C1256.52 33.9784 1257.48 33.9784 1258.25 34.4259L1297.25 56.9728C1298.02 57.4196 1298.5 58.2445 1298.5 59.1371V104.238C1298.5 105.131 1298.02 105.955 1297.25 106.402L1258.25 128.949C1257.48 129.397 1256.52 129.397 1255.75 128.949L1216.75 106.402C1215.98 105.955 1215.5 105.131 1215.5 104.238V59.1371C1215.5 58.2445 1215.98 57.4196 1216.75 56.9728L1255.75 34.4259Z" fill="white" stroke="#EDE9FE"/>
<path d="M1338.75 34.4259C1339.52 33.9784 1340.48 33.9784 1341.25 34.4259L1380.25 56.9728C1381.02 57.4196 1381.5 58.2445 1381.5 59.1371V104.238C1381.5 105.131 1381.02 105.955 1380.25 106.402L1341.25 128.949C1340.48 129.397 1339.52 129.397 1338.75 128.949L1299.75 106.402C1298.98 105.955 1298.5 105.131 1298.5 104.238V59.1371C1298.5 58.2445 1298.98 57.4196 1299.75 56.9728L1338.75 34.4259Z" fill="white" stroke="#EDE9FE"/>
<path d="M1421.75 34.4259C1422.52 33.9784 1423.48 33.9784 1424.25 34.4259L1463.25 56.9728C1464.02 57.4196 1464.5 58.2445 1464.5 59.1371V104.238C1464.5 105.131 1464.02 105.955 1463.25 106.402L1424.25 128.949C1423.48 129.397 1422.52 129.397 1421.75 128.949L1382.75 106.402C1381.98 105.955 1381.5 105.131 1381.5 104.238V59.1371C1381.5 58.2445 1381.98 57.4196 1382.75 56.9728L1421.75 34.4259Z" fill="white" stroke="#EDE9FE"/>
<path d="M52.2487 105.551C53.0229 105.103 53.9771 105.103 54.7513 105.551L93.7513 128.098C94.524 128.545 95 129.369 95 130.262V175.363C95 176.256 94.524 177.08 93.7513 177.527L54.7513 200.074C53.9771 200.522 53.0229 200.522 52.2487 200.074L13.2487 177.527C12.4759 177.08 12 176.256 12 175.363V130.262C12 129.369 12.4759 128.545 13.2487 128.098L52.2487 105.551Z" fill="white" stroke="#EDE9FE"/>
<path d="M135.249 105.551C136.023 105.103 136.977 105.103 137.751 105.551L176.751 128.098C177.524 128.545 178 129.369 178 130.262V175.363C178 176.256 177.524 177.08 176.751 177.527L137.751 200.074C136.977 200.522 136.023 200.522 135.249 200.074L96.2487 177.527C95.4759 177.08 95 176.256 95 175.363V130.262C95 129.369 95.4759 128.545 96.2487 128.098L135.249 105.551Z" fill="white" stroke="#EDE9FE"/>
<path d="M218.249 105.551C219.023 105.103 219.977 105.103 220.751 105.551L259.751 128.098C260.524 128.545 261 129.369 261 130.262V175.363C261 176.256 260.524 177.08 259.751 177.527L220.751 200.074C219.977 200.522 219.023 200.522 218.249 200.074L179.249 177.527C178.476 177.08 178 176.256 178 175.363V130.262C178 129.369 178.476 128.545 179.249 128.098L218.249 105.551Z" fill="white" stroke="#EDE9FE"/>
<path d="M301.249 105.551C302.023 105.103 302.977 105.103 303.751 105.551L342.751 128.098C343.524 128.545 344 129.369 344 130.262V175.363C344 176.256 343.524 177.08 342.751 177.527L303.751 200.074C302.977 200.522 302.023 200.522 301.249 200.074L262.249 177.527C261.476 177.08 261 176.256 261 175.363V130.262C261 129.369 261.476 128.545 262.249 128.098L301.249 105.551Z" fill="white" stroke="#EDE9FE"/>
<path d="M384.249 105.551C385.023 105.103 385.977 105.103 386.751 105.551L425.751 128.098C426.524 128.545 427 129.369 427 130.262V175.363C427 176.256 426.524 177.08 425.751 177.527L386.751 200.074C385.977 200.522 385.023 200.522 384.249 200.074L345.249 177.527C344.476 177.08 344 176.256 344 175.363V130.262C344 129.369 344.476 128.545 345.249 128.098L384.249 105.551Z" fill="#F5F3FF" stroke="#EDE9FE"/>
<path d="M467.249 105.551C468.023 105.103 468.977 105.103 469.751 105.551L508.751 128.098C509.524 128.545 510 129.369 510 130.262V175.363C510 176.256 509.524 177.08 508.751 177.527L469.751 200.074C468.977 200.522 468.023 200.522 467.249 200.074L428.249 177.527C427.476 177.08 427 176.256 427 175.363V130.262C427 129.369 427.476 128.545 428.249 128.098L467.249 105.551Z" fill="white" stroke="#EDE9FE"/>
<path d="M550.249 105.551C551.023 105.103 551.977 105.103 552.751 105.551L591.751 128.098C592.524 128.545 593 129.369 593 130.262V175.363C593 176.256 592.524 177.08 591.751 177.527L552.751 200.074C551.977 200.522 551.023 200.522 550.249 200.074L511.249 177.527C510.476 177.08 510 176.256 510 175.363V130.262C510 129.369 510.476 128.545 511.249 128.098L550.249 105.551Z" fill="white" stroke="#EDE9FE"/>
<path d="M633.249 105.551C634.023 105.103 634.977 105.103 635.751 105.551L674.751 128.098C675.524 128.545 676 129.369 676 130.262V175.363C676 176.256 675.524 177.08 674.751 177.527L635.751 200.074C634.977 200.522 634.023 200.522 633.249 200.074L594.249 177.527C593.476 177.08 593 176.256 593 175.363V130.262C593 129.369 593.476 128.545 594.249 128.098L633.249 105.551Z" fill="white" stroke="#EDE9FE"/>
<path d="M716.249 105.551C717.023 105.103 717.977 105.103 718.751 105.551L757.751 128.098C758.524 128.545 759 129.369 759 130.262V175.363C759 176.256 758.524 177.08 757.751 177.527L718.751 200.074C717.977 200.522 717.023 200.522 716.249 200.074L677.249 177.527C676.476 177.08 676 176.256 676 175.363V130.262C676 129.369 676.476 128.545 677.249 128.098L716.249 105.551Z" fill="white" stroke="#EDE9FE"/>
<path d="M799.249 105.551C800.023 105.103 800.977 105.103 801.751 105.551L840.751 128.098C841.524 128.545 842 129.369 842 130.262V175.363C842 176.256 841.524 177.08 840.751 177.527L801.751 200.074C800.977 200.522 800.023 200.522 799.249 200.074L760.249 177.527C759.476 177.08 759 176.256 759 175.363V130.262C759 129.369 759.476 128.545 760.249 128.098L799.249 105.551Z" fill="white" stroke="#EDE9FE"/>
<path d="M882.249 105.551C883.023 105.103 883.977 105.103 884.751 105.551L923.751 128.098C924.524 128.545 925 129.369 925 130.262V175.363C925 176.256 924.524 177.08 923.751 177.527L884.751 200.074C883.977 200.522 883.023 200.522 882.249 200.074L843.249 177.527C842.476 177.08 842 176.256 842 175.363V130.262C842 129.369 842.476 128.545 843.249 128.098L882.249 105.551Z" fill="white" stroke="#EDE9FE"/>
<path d="M965.249 105.551C966.023 105.103 966.977 105.103 967.751 105.551L1006.75 128.098C1007.52 128.545 1008 129.369 1008 130.262V175.363C1008 176.256 1007.52 177.08 1006.75 177.527L967.751 200.074C966.977 200.522 966.023 200.522 965.249 200.074L926.249 177.527C925.476 177.08 925 176.256 925 175.363V130.262C925 129.369 925.476 128.545 926.249 128.098L965.249 105.551Z" fill="white" stroke="#EDE9FE"/>
<path d="M1048.25 105.551C1049.02 105.103 1049.98 105.103 1050.75 105.551L1089.75 128.098C1090.52 128.545 1091 129.369 1091 130.262V175.363C1091 176.256 1090.52 177.08 1089.75 177.527L1050.75 200.074C1049.98 200.522 1049.02 200.522 1048.25 200.074L1009.25 177.527C1008.48 177.08 1008 176.256 1008 175.363V130.262C1008 129.369 1008.48 128.545 1009.25 128.098L1048.25 105.551Z" fill="white" stroke="#EDE9FE"/>
<path d="M1131.25 105.551C1132.02 105.103 1132.98 105.103 1133.75 105.551L1172.75 128.098C1173.52 128.545 1174 129.369 1174 130.262V175.363C1174 176.256 1173.52 177.08 1172.75 177.527L1133.75 200.074C1132.98 200.522 1132.02 200.522 1131.25 200.074L1092.25 177.527C1091.48 177.08 1091 176.256 1091 175.363V130.262C1091 129.369 1091.48 128.545 1092.25 128.098L1131.25 105.551Z" fill="#F5F3FF" stroke="#EDE9FE"/>
<path d="M1214.25 105.551C1215.02 105.103 1215.98 105.103 1216.75 105.551L1255.75 128.098C1256.52 128.545 1257 129.369 1257 130.262V175.363C1257 176.256 1256.52 177.08 1255.75 177.527L1216.75 200.074C1215.98 200.522 1215.02 200.522 1214.25 200.074L1175.25 177.527C1174.48 177.08 1174 176.256 1174 175.363V130.262C1174 129.369 1174.48 128.545 1175.25 128.098L1214.25 105.551Z" fill="white" stroke="#EDE9FE"/>
<path d="M1297.25 105.551C1298.02 105.103 1298.98 105.103 1299.75 105.551L1338.75 128.098C1339.52 128.545 1340 129.369 1340 130.262V175.363C1340 176.256 1339.52 177.08 1338.75 177.527L1299.75 200.074C1298.98 200.522 1298.02 200.522 1297.25 200.074L1258.25 177.527C1257.48 177.08 1257 176.256 1257 175.363V130.262C1257 129.369 1257.48 128.545 1258.25 128.098L1297.25 105.551Z" fill="white" stroke="#EDE9FE"/>
<path d="M1380.25 105.551C1381.02 105.103 1381.98 105.103 1382.75 105.551L1421.75 128.098C1422.52 128.545 1423 129.369 1423 130.262V175.363C1423 176.256 1422.52 177.08 1421.75 177.527L1382.75 200.074C1381.98 200.522 1381.02 200.522 1380.25 200.074L1341.25 177.527C1340.48 177.08 1340 176.256 1340 175.363V130.262C1340 129.369 1340.48 128.545 1341.25 128.098L1380.25 105.551Z" fill="white" stroke="#EDE9FE"/>
<path d="M1463.25 105.551C1464.02 105.103 1464.98 105.103 1465.75 105.551L1504.75 128.098C1505.52 128.545 1506 129.369 1506 130.262V175.363C1506 176.256 1505.52 177.08 1504.75 177.527L1465.75 200.074C1464.98 200.522 1464.02 200.522 1463.25 200.074L1424.25 177.527C1423.48 177.08 1423 176.256 1423 175.363V130.262C1423 129.369 1423.48 128.545 1424.25 128.098L1463.25 105.551Z" fill="white" stroke="#EDE9FE"/>
<path d="M10.7487 176.676C11.5229 176.228 12.4771 176.228 13.2513 176.676L52.2513 199.223C53.024 199.67 53.5 200.494 53.5 201.387V246.488C53.5 247.381 53.024 248.205 52.2513 248.652L13.2513 271.199C12.4771 271.647 11.5229 271.647 10.7487 271.199L-28.2513 248.652C-29.0241 248.205 -29.5 247.381 -29.5 246.488V201.387C-29.5 200.494 -29.0241 199.67 -28.2513 199.223L10.7487 176.676Z" fill="white" stroke="#EDE9FE"/>
<path d="M93.7487 176.676C94.5229 176.228 95.4771 176.228 96.2513 176.676L135.251 199.223C136.024 199.67 136.5 200.494 136.5 201.387V246.488C136.5 247.381 136.024 248.205 135.251 248.652L96.2513 271.199C95.4771 271.647 94.5229 271.647 93.7487 271.199L54.7487 248.652C53.9759 248.205 53.5 247.381 53.5 246.488V201.387C53.5 200.494 53.9759 199.67 54.7487 199.223L93.7487 176.676Z" fill="white" stroke="#EDE9FE"/>
<path d="M176.749 176.676C177.523 176.228 178.477 176.228 179.251 176.676L218.251 199.223C219.024 199.67 219.5 200.494 219.5 201.387V246.488C219.5 247.381 219.024 248.205 218.251 248.652L179.251 271.199C178.477 271.647 177.523 271.647 176.749 271.199L137.749 248.652C136.976 248.205 136.5 247.381 136.5 246.488V201.387C136.5 200.494 136.976 199.67 137.749 199.223L176.749 176.676Z" fill="white" stroke="#EDE9FE"/>
<path d="M259.749 176.676C260.523 176.228 261.477 176.228 262.251 176.676L301.251 199.223C302.024 199.67 302.5 200.494 302.5 201.387V246.488C302.5 247.381 302.024 248.205 301.251 248.652L262.251 271.199C261.477 271.647 260.523 271.647 259.749 271.199L220.749 248.652C219.976 248.205 219.5 247.381 219.5 246.488V201.387C219.5 200.494 219.976 199.67 220.749 199.223L259.749 176.676Z" fill="white" stroke="#EDE9FE"/>
<path d="M342.749 176.676C343.523 176.228 344.477 176.228 345.251 176.676L384.251 199.223C385.024 199.67 385.5 200.494 385.5 201.387V246.488C385.5 247.381 385.024 248.205 384.251 248.652L345.251 271.199C344.477 271.647 343.523 271.647 342.749 271.199L303.749 248.652C302.976 248.205 302.5 247.381 302.5 246.488V201.387C302.5 200.494 302.976 199.67 303.749 199.223L342.749 176.676Z" fill="white" stroke="#EDE9FE"/>
<path d="M425.749 176.676C426.523 176.228 427.477 176.228 428.251 176.676L467.251 199.223C468.024 199.67 468.5 200.494 468.5 201.387V246.488C468.5 247.381 468.024 248.205 467.251 248.652L428.251 271.199C427.477 271.647 426.523 271.647 425.749 271.199L386.749 248.652C385.976 248.205 385.5 247.381 385.5 246.488V201.387C385.5 200.494 385.976 199.67 386.749 199.223L425.749 176.676Z" fill="white" stroke="#EDE9FE"/>
<path d="M508.749 176.676C509.523 176.228 510.477 176.228 511.251 176.676L550.251 199.223C551.024 199.67 551.5 200.494 551.5 201.387V246.488C551.5 247.381 551.024 248.205 550.251 248.652L511.251 271.199C510.477 271.647 509.523 271.647 508.749 271.199L469.749 248.652C468.976 248.205 468.5 247.381 468.5 246.488V201.387C468.5 200.494 468.976 199.67 469.749 199.223L508.749 176.676Z" fill="white" stroke="#EDE9FE"/>
<path d="M591.749 176.676C592.523 176.228 593.477 176.228 594.251 176.676L633.251 199.223C634.024 199.67 634.5 200.494 634.5 201.387V246.488C634.5 247.381 634.024 248.205 633.251 248.652L594.251 271.199C593.477 271.647 592.523 271.647 591.749 271.199L552.749 248.652C551.976 248.205 551.5 247.381 551.5 246.488V201.387C551.5 200.494 551.976 199.67 552.749 199.223L591.749 176.676Z" fill="white" stroke="#EDE9FE"/>
<path d="M674.749 176.676C675.523 176.228 676.477 176.228 677.251 176.676L716.251 199.223C717.024 199.67 717.5 200.494 717.5 201.387V246.488C717.5 247.381 717.024 248.205 716.251 248.652L677.251 271.199C676.477 271.647 675.523 271.647 674.749 271.199L635.749 248.652C634.976 248.205 634.5 247.381 634.5 246.488V201.387C634.5 200.494 634.976 199.67 635.749 199.223L674.749 176.676Z" fill="white" stroke="#EDE9FE"/>
<path d="M757.749 176.676C758.523 176.228 759.477 176.228 760.251 176.676L799.251 199.223C800.024 199.67 800.5 200.494 800.5 201.387V246.488C800.5 247.381 800.024 248.205 799.251 248.652L760.251 271.199C759.477 271.647 758.523 271.647 757.749 271.199L718.749 248.652C717.976 248.205 717.5 247.381 717.5 246.488V201.387C717.5 200.494 717.976 199.67 718.749 199.223L757.749 176.676Z" fill="white" stroke="#EDE9FE"/>
<path d="M840.749 176.676C841.523 176.228 842.477 176.228 843.251 176.676L882.251 199.223C883.024 199.67 883.5 200.494 883.5 201.387V246.488C883.5 247.381 883.024 248.205 882.251 248.652L843.251 271.199C842.477 271.647 841.523 271.647 840.749 271.199L801.749 248.652C800.976 248.205 800.5 247.381 800.5 246.488V201.387C800.5 200.494 800.976 199.67 801.749 199.223L840.749 176.676Z" fill="white" stroke="#EDE9FE"/>
<path d="M923.749 176.676C924.523 176.228 925.477 176.228 926.251 176.676L965.251 199.223C966.024 199.67 966.5 200.494 966.5 201.387V246.488C966.5 247.381 966.024 248.205 965.251 248.652L926.251 271.199C925.477 271.647 924.523 271.647 923.749 271.199L884.749 248.652C883.976 248.205 883.5 247.381 883.5 246.488V201.387C883.5 200.494 883.976 199.67 884.749 199.223L923.749 176.676Z" fill="white" stroke="#EDE9FE"/>
<path d="M1006.75 176.676C1007.52 176.228 1008.48 176.228 1009.25 176.676L1048.25 199.223C1049.02 199.67 1049.5 200.494 1049.5 201.387V246.488C1049.5 247.381 1049.02 248.205 1048.25 248.652L1009.25 271.199C1008.48 271.647 1007.52 271.647 1006.75 271.199L967.749 248.652C966.976 248.205 966.5 247.381 966.5 246.488V201.387C966.5 200.494 966.976 199.67 967.749 199.223L1006.75 176.676Z" fill="white" stroke="#EDE9FE"/>
<path d="M1089.75 176.676C1090.52 176.228 1091.48 176.228 1092.25 176.676L1131.25 199.223C1132.02 199.67 1132.5 200.494 1132.5 201.387V246.488C1132.5 247.381 1132.02 248.205 1131.25 248.652L1092.25 271.199C1091.48 271.647 1090.52 271.647 1089.75 271.199L1050.75 248.652C1049.98 248.205 1049.5 247.381 1049.5 246.488V201.387C1049.5 200.494 1049.98 199.67 1050.75 199.223L1089.75 176.676Z" fill="white" stroke="#EDE9FE"/>
<path d="M1172.75 176.676C1173.52 176.228 1174.48 176.228 1175.25 176.676L1214.25 199.223C1215.02 199.67 1215.5 200.494 1215.5 201.387V246.488C1215.5 247.381 1215.02 248.205 1214.25 248.652L1175.25 271.199C1174.48 271.647 1173.52 271.647 1172.75 271.199L1133.75 248.652C1132.98 248.205 1132.5 247.381 1132.5 246.488V201.387C1132.5 200.494 1132.98 199.67 1133.75 199.223L1172.75 176.676Z" fill="white" stroke="#EDE9FE"/>
<path d="M1255.75 176.676C1256.52 176.228 1257.48 176.228 1258.25 176.676L1297.25 199.223C1298.02 199.67 1298.5 200.494 1298.5 201.387V246.488C1298.5 247.381 1298.02 248.205 1297.25 248.652L1258.25 271.199C1257.48 271.647 1256.52 271.647 1255.75 271.199L1216.75 248.652C1215.98 248.205 1215.5 247.381 1215.5 246.488V201.387C1215.5 200.494 1215.98 199.67 1216.75 199.223L1255.75 176.676Z" fill="white" stroke="#EDE9FE"/>
<path d="M1338.75 176.676C1339.52 176.228 1340.48 176.228 1341.25 176.676L1380.25 199.223C1381.02 199.67 1381.5 200.494 1381.5 201.387V246.488C1381.5 247.381 1381.02 248.205 1380.25 248.652L1341.25 271.199C1340.48 271.647 1339.52 271.647 1338.75 271.199L1299.75 248.652C1298.98 248.205 1298.5 247.381 1298.5 246.488V201.387C1298.5 200.494 1298.98 199.67 1299.75 199.223L1338.75 176.676Z" fill="white" stroke="#EDE9FE"/>
<path d="M1421.75 176.676C1422.52 176.228 1423.48 176.228 1424.25 176.676L1463.25 199.223C1464.02 199.67 1464.5 200.494 1464.5 201.387V246.488C1464.5 247.381 1464.02 248.205 1463.25 248.652L1424.25 271.199C1423.48 271.647 1422.52 271.647 1421.75 271.199L1382.75 248.652C1381.98 248.205 1381.5 247.381 1381.5 246.488V201.387C1381.5 200.494 1381.98 199.67 1382.75 199.223L1421.75 176.676Z" fill="white" stroke="#EDE9FE"/>
<path d="M52.2487 247.801C53.0229 247.353 53.9771 247.353 54.7513 247.801L93.7513 270.348C94.524 270.795 95 271.619 95 272.512V317.613C95 318.506 94.524 319.33 93.7513 319.777L54.7513 342.324C53.9771 342.772 53.0229 342.772 52.2487 342.324L13.2487 319.777C12.4759 319.33 12 318.506 12 317.613V272.512C12 271.619 12.4759 270.795 13.2487 270.348L52.2487 247.801Z" fill="white" stroke="#EDE9FE"/>
<path d="M135.249 247.801C136.023 247.353 136.977 247.353 137.751 247.801L176.751 270.348C177.524 270.795 178 271.619 178 272.512V317.613C178 318.506 177.524 319.33 176.751 319.777L137.751 342.324C136.977 342.772 136.023 342.772 135.249 342.324L96.2487 319.777C95.4759 319.33 95 318.506 95 317.613V272.512C95 271.619 95.4759 270.795 96.2487 270.348L135.249 247.801Z" fill="white" stroke="#EDE9FE"/>
<path d="M218.249 247.801C219.023 247.353 219.977 247.353 220.751 247.801L259.751 270.348C260.524 270.795 261 271.619 261 272.512V317.613C261 318.506 260.524 319.33 259.751 319.777L220.751 342.324C219.977 342.772 219.023 342.772 218.249 342.324L179.249 319.777C178.476 319.33 178 318.506 178 317.613V272.512C178 271.619 178.476 270.795 179.249 270.348L218.249 247.801Z" fill="white" stroke="#EDE9FE"/>
<path d="M301.249 247.801C302.023 247.353 302.977 247.353 303.751 247.801L342.751 270.348C343.524 270.795 344 271.619 344 272.512V317.613C344 318.506 343.524 319.33 342.751 319.777L303.751 342.324C302.977 342.772 302.023 342.772 301.249 342.324L262.249 319.777C261.476 319.33 261 318.506 261 317.613V272.512C261 271.619 261.476 270.795 262.249 270.348L301.249 247.801Z" fill="white" stroke="#EDE9FE"/>
<path d="M384.249 247.801C385.023 247.353 385.977 247.353 386.751 247.801L425.751 270.348C426.524 270.795 427 271.619 427 272.512V317.613C427 318.506 426.524 319.33 425.751 319.777L386.751 342.324C385.977 342.772 385.023 342.772 384.249 342.324L345.249 319.777C344.476 319.33 344 318.506 344 317.613V272.512C344 271.619 344.476 270.795 345.249 270.348L384.249 247.801Z" fill="white" stroke="#EDE9FE"/>
<path d="M467.249 247.801C468.023 247.353 468.977 247.353 469.751 247.801L508.751 270.348C509.524 270.795 510 271.619 510 272.512V317.613C510 318.506 509.524 319.33 508.751 319.777L469.751 342.324C468.977 342.772 468.023 342.772 467.249 342.324L428.249 319.777C427.476 319.33 427 318.506 427 317.613V272.512C427 271.619 427.476 270.795 428.249 270.348L467.249 247.801Z" fill="white" stroke="#EDE9FE"/>
<path d="M550.249 247.801C551.023 247.353 551.977 247.353 552.751 247.801L591.751 270.348C592.524 270.795 593 271.619 593 272.512V317.613C593 318.506 592.524 319.33 591.751 319.777L552.751 342.324C551.977 342.772 551.023 342.772 550.249 342.324L511.249 319.777C510.476 319.33 510 318.506 510 317.613V272.512C510 271.619 510.476 270.795 511.249 270.348L550.249 247.801Z" fill="#F5F3FF" stroke="#EDE9FE"/>
<path d="M633.249 247.801C634.023 247.353 634.977 247.353 635.751 247.801L674.751 270.348C675.524 270.795 676 271.619 676 272.512V317.613C676 318.506 675.524 319.33 674.751 319.777L635.751 342.324C634.977 342.772 634.023 342.772 633.249 342.324L594.249 319.777C593.476 319.33 593 318.506 593 317.613V272.512C593 271.619 593.476 270.795 594.249 270.348L633.249 247.801Z" fill="white" stroke="#EDE9FE"/>
<path d="M716.249 247.801C717.023 247.353 717.977 247.353 718.751 247.801L757.751 270.348C758.524 270.795 759 271.619 759 272.512V317.613C759 318.506 758.524 319.33 757.751 319.777L718.751 342.324C717.977 342.772 717.023 342.772 716.249 342.324L677.249 319.777C676.476 319.33 676 318.506 676 317.613V272.512C676 271.619 676.476 270.795 677.249 270.348L716.249 247.801Z" fill="white" stroke="#EDE9FE"/>
<path d="M799.249 247.801C800.023 247.353 800.977 247.353 801.751 247.801L840.751 270.348C841.524 270.795 842 271.619 842 272.512V317.613C842 318.506 841.524 319.33 840.751 319.777L801.751 342.324C800.977 342.772 800.023 342.772 799.249 342.324L760.249 319.777C759.476 319.33 759 318.506 759 317.613V272.512C759 271.619 759.476 270.795 760.249 270.348L799.249 247.801Z" fill="white" stroke="#EDE9FE"/>
<path d="M882.249 247.801C883.023 247.353 883.977 247.353 884.751 247.801L923.751 270.348C924.524 270.795 925 271.619 925 272.512V317.613C925 318.506 924.524 319.33 923.751 319.777L884.751 342.324C883.977 342.772 883.023 342.772 882.249 342.324L843.249 319.777C842.476 319.33 842 318.506 842 317.613V272.512C842 271.619 842.476 270.795 843.249 270.348L882.249 247.801Z" fill="white" stroke="#EDE9FE"/>
<path d="M965.249 247.801C966.023 247.353 966.977 247.353 967.751 247.801L1006.75 270.348C1007.52 270.795 1008 271.619 1008 272.512V317.613C1008 318.506 1007.52 319.33 1006.75 319.777L967.751 342.324C966.977 342.772 966.023 342.772 965.249 342.324L926.249 319.777C925.476 319.33 925 318.506 925 317.613V272.512C925 271.619 925.476 270.795 926.249 270.348L965.249 247.801Z" fill="white" stroke="#EDE9FE"/>
<path d="M1048.25 247.801C1049.02 247.353 1049.98 247.353 1050.75 247.801L1089.75 270.348C1090.52 270.795 1091 271.619 1091 272.512V317.613C1091 318.506 1090.52 319.33 1089.75 319.777L1050.75 342.324C1049.98 342.772 1049.02 342.772 1048.25 342.324L1009.25 319.777C1008.48 319.33 1008 318.506 1008 317.613V272.512C1008 271.619 1008.48 270.795 1009.25 270.348L1048.25 247.801Z" fill="white" stroke="#EDE9FE"/>
<path d="M1131.25 247.801C1132.02 247.353 1132.98 247.353 1133.75 247.801L1172.75 270.348C1173.52 270.795 1174 271.619 1174 272.512V317.613C1174 318.506 1173.52 319.33 1172.75 319.777L1133.75 342.324C1132.98 342.772 1132.02 342.772 1131.25 342.324L1092.25 319.777C1091.48 319.33 1091 318.506 1091 317.613V272.512C1091 271.619 1091.48 270.795 1092.25 270.348L1131.25 247.801Z" fill="white" stroke="#EDE9FE"/>
<path d="M1214.25 247.801C1215.02 247.353 1215.98 247.353 1216.75 247.801L1255.75 270.348C1256.52 270.795 1257 271.619 1257 272.512V317.613C1257 318.506 1256.52 319.33 1255.75 319.777L1216.75 342.324C1215.98 342.772 1215.02 342.772 1214.25 342.324L1175.25 319.777C1174.48 319.33 1174 318.506 1174 317.613V272.512C1174 271.619 1174.48 270.795 1175.25 270.348L1214.25 247.801Z" fill="white" stroke="#EDE9FE"/>
<path d="M1297.25 247.801C1298.02 247.353 1298.98 247.353 1299.75 247.801L1338.75 270.348C1339.52 270.795 1340 271.619 1340 272.512V317.613C1340 318.506 1339.52 319.33 1338.75 319.777L1299.75 342.324C1298.98 342.772 1298.02 342.772 1297.25 342.324L1258.25 319.777C1257.48 319.33 1257 318.506 1257 317.613V272.512C1257 271.619 1257.48 270.795 1258.25 270.348L1297.25 247.801Z" fill="white" stroke="#EDE9FE"/>
<path d="M1380.25 247.801C1381.02 247.353 1381.98 247.353 1382.75 247.801L1421.75 270.348C1422.52 270.795 1423 271.619 1423 272.512V317.613C1423 318.506 1422.52 319.33 1421.75 319.777L1382.75 342.324C1381.98 342.772 1381.02 342.772 1380.25 342.324L1341.25 319.777C1340.48 319.33 1340 318.506 1340 317.613V272.512C1340 271.619 1340.48 270.795 1341.25 270.348L1380.25 247.801Z" fill="white" stroke="#EDE9FE"/>
<path d="M1463.25 247.801C1464.02 247.353 1464.98 247.353 1465.75 247.801L1504.75 270.348C1505.52 270.795 1506 271.619 1506 272.512V317.613C1506 318.506 1505.52 319.33 1504.75 319.777L1465.75 342.324C1464.98 342.772 1464.02 342.772 1463.25 342.324L1424.25 319.777C1423.48 319.33 1423 318.506 1423 317.613V272.512C1423 271.619 1423.48 270.795 1424.25 270.348L1463.25 247.801Z" fill="white" stroke="#EDE9FE"/>
<path d="M10.7487 318.926C11.5229 318.478 12.4771 318.478 13.2513 318.926L52.2513 341.473C53.024 341.92 53.5 342.744 53.5 343.637V388.738C53.5 389.631 53.024 390.455 52.2513 390.902L13.2513 413.449C12.4771 413.897 11.5229 413.897 10.7487 413.449L-28.2513 390.902C-29.0241 390.455 -29.5 389.631 -29.5 388.738V343.637C-29.5 342.744 -29.0241 341.92 -28.2513 341.473L10.7487 318.926Z" fill="white" stroke="#EDE9FE"/>
<path d="M93.7487 318.926C94.5229 318.478 95.4771 318.478 96.2513 318.926L135.251 341.473C136.024 341.92 136.5 342.744 136.5 343.637V388.738C136.5 389.631 136.024 390.455 135.251 390.902L96.2513 413.449C95.4771 413.897 94.5229 413.897 93.7487 413.449L54.7487 390.902C53.9759 390.455 53.5 389.631 53.5 388.738V343.637C53.5 342.744 53.9759 341.92 54.7487 341.473L93.7487 318.926Z" fill="white" stroke="#EDE9FE"/>
<path d="M176.749 318.926C177.523 318.478 178.477 318.478 179.251 318.926L218.251 341.473C219.024 341.92 219.5 342.744 219.5 343.637V388.738C219.5 389.631 219.024 390.455 218.251 390.902L179.251 413.449C178.477 413.897 177.523 413.897 176.749 413.449L137.749 390.902C136.976 390.455 136.5 389.631 136.5 388.738V343.637C136.5 342.744 136.976 341.92 137.749 341.473L176.749 318.926Z" fill="white" stroke="#EDE9FE"/>
<path d="M259.749 318.926C260.523 318.478 261.477 318.478 262.251 318.926L301.251 341.473C302.024 341.92 302.5 342.744 302.5 343.637V388.738C302.5 389.631 302.024 390.455 301.251 390.902L262.251 413.449C261.477 413.897 260.523 413.897 259.749 413.449L220.749 390.902C219.976 390.455 219.5 389.631 219.5 388.738V343.637C219.5 342.744 219.976 341.92 220.749 341.473L259.749 318.926Z" fill="white" stroke="#EDE9FE"/>
<path d="M342.749 318.926C343.523 318.478 344.477 318.478 345.251 318.926L384.251 341.473C385.024 341.92 385.5 342.744 385.5 343.637V388.738C385.5 389.631 385.024 390.455 384.251 390.902L345.251 413.449C344.477 413.897 343.523 413.897 342.749 413.449L303.749 390.902C302.976 390.455 302.5 389.631 302.5 388.738V343.637C302.5 342.744 302.976 341.92 303.749 341.473L342.749 318.926Z" fill="white" stroke="#EDE9FE"/>
<path d="M425.749 318.926C426.523 318.478 427.477 318.478 428.251 318.926L467.251 341.473C468.024 341.92 468.5 342.744 468.5 343.637V388.738C468.5 389.631 468.024 390.455 467.251 390.902L428.251 413.449C427.477 413.897 426.523 413.897 425.749 413.449L386.749 390.902C385.976 390.455 385.5 389.631 385.5 388.738V343.637C385.5 342.744 385.976 341.92 386.749 341.473L425.749 318.926Z" fill="white" stroke="#EDE9FE"/>
<path d="M508.749 318.926C509.523 318.478 510.477 318.478 511.251 318.926L550.251 341.473C551.024 341.92 551.5 342.744 551.5 343.637V388.738C551.5 389.631 551.024 390.455 550.251 390.902L511.251 413.449C510.477 413.897 509.523 413.897 508.749 413.449L469.749 390.902C468.976 390.455 468.5 389.631 468.5 388.738V343.637C468.5 342.744 468.976 341.92 469.749 341.473L508.749 318.926Z" fill="white" stroke="#EDE9FE"/>
<path d="M591.749 318.926C592.523 318.478 593.477 318.478 594.251 318.926L633.251 341.473C634.024 341.92 634.5 342.744 634.5 343.637V388.738C634.5 389.631 634.024 390.455 633.251 390.902L594.251 413.449C593.477 413.897 592.523 413.897 591.749 413.449L552.749 390.902C551.976 390.455 551.5 389.631 551.5 388.738V343.637C551.5 342.744 551.976 341.92 552.749 341.473L591.749 318.926Z" fill="white" stroke="#EDE9FE"/>
<path d="M674.749 318.926C675.523 318.478 676.477 318.478 677.251 318.926L716.251 341.473C717.024 341.92 717.5 342.744 717.5 343.637V388.738C717.5 389.631 717.024 390.455 716.251 390.902L677.251 413.449C676.477 413.897 675.523 413.897 674.749 413.449L635.749 390.902C634.976 390.455 634.5 389.631 634.5 388.738V343.637C634.5 342.744 634.976 341.92 635.749 341.473L674.749 318.926Z" fill="white" stroke="#EDE9FE"/>
<path d="M757.749 318.926C758.523 318.478 759.477 318.478 760.251 318.926L799.251 341.473C800.024 341.92 800.5 342.744 800.5 343.637V388.738C800.5 389.631 800.024 390.455 799.251 390.902L760.251 413.449C759.477 413.897 758.523 413.897 757.749 413.449L718.749 390.902C717.976 390.455 717.5 389.631 717.5 388.738V343.637C717.5 342.744 717.976 341.92 718.749 341.473L757.749 318.926Z" fill="white" stroke="#EDE9FE"/>
<path d="M840.749 318.926C841.523 318.478 842.477 318.478 843.251 318.926L882.251 341.473C883.024 341.92 883.5 342.744 883.5 343.637V388.738C883.5 389.631 883.024 390.455 882.251 390.902L843.251 413.449C842.477 413.897 841.523 413.897 840.749 413.449L801.749 390.902C800.976 390.455 800.5 389.631 800.5 388.738V343.637C800.5 342.744 800.976 341.92 801.749 341.473L840.749 318.926Z" fill="#F5F3FF" stroke="#EDE9FE"/>
<path d="M923.749 318.926C924.523 318.478 925.477 318.478 926.251 318.926L965.251 341.473C966.024 341.92 966.5 342.744 966.5 343.637V388.738C966.5 389.631 966.024 390.455 965.251 390.902L926.251 413.449C925.477 413.897 924.523 413.897 923.749 413.449L884.749 390.902C883.976 390.455 883.5 389.631 883.5 388.738V343.637C883.5 342.744 883.976 341.92 884.749 341.473L923.749 318.926Z" fill="#F5F3FF" stroke="#EDE9FE"/>
<path d="M1006.75 318.926C1007.52 318.478 1008.48 318.478 1009.25 318.926L1048.25 341.473C1049.02 341.92 1049.5 342.744 1049.5 343.637V388.738C1049.5 389.631 1049.02 390.455 1048.25 390.902L1009.25 413.449C1008.48 413.897 1007.52 413.897 1006.75 413.449L967.749 390.902C966.976 390.455 966.5 389.631 966.5 388.738V343.637C966.5 342.744 966.976 341.92 967.749 341.473L1006.75 318.926Z" fill="white" stroke="#EDE9FE"/>
<path d="M1089.75 318.926C1090.52 318.478 1091.48 318.478 1092.25 318.926L1131.25 341.473C1132.02 341.92 1132.5 342.744 1132.5 343.637V388.738C1132.5 389.631 1132.02 390.455 1131.25 390.902L1092.25 413.449C1091.48 413.897 1090.52 413.897 1089.75 413.449L1050.75 390.902C1049.98 390.455 1049.5 389.631 1049.5 388.738V343.637C1049.5 342.744 1049.98 341.92 1050.75 341.473L1089.75 318.926Z" fill="white" stroke="#EDE9FE"/>
<path d="M1172.75 318.926C1173.52 318.478 1174.48 318.478 1175.25 318.926L1214.25 341.473C1215.02 341.92 1215.5 342.744 1215.5 343.637V388.738C1215.5 389.631 1215.02 390.455 1214.25 390.902L1175.25 413.449C1174.48 413.897 1173.52 413.897 1172.75 413.449L1133.75 390.902C1132.98 390.455 1132.5 389.631 1132.5 388.738V343.637C1132.5 342.744 1132.98 341.92 1133.75 341.473L1172.75 318.926Z" fill="white" stroke="#EDE9FE"/>
<path d="M1255.75 318.926C1256.52 318.478 1257.48 318.478 1258.25 318.926L1297.25 341.473C1298.02 341.92 1298.5 342.744 1298.5 343.637V388.738C1298.5 389.631 1298.02 390.455 1297.25 390.902L1258.25 413.449C1257.48 413.897 1256.52 413.897 1255.75 413.449L1216.75 390.902C1215.98 390.455 1215.5 389.631 1215.5 388.738V343.637C1215.5 342.744 1215.98 341.92 1216.75 341.473L1255.75 318.926Z" fill="white" stroke="#EDE9FE"/>
<path d="M1338.75 318.926C1339.52 318.478 1340.48 318.478 1341.25 318.926L1380.25 341.473C1381.02 341.92 1381.5 342.744 1381.5 343.637V388.738C1381.5 389.631 1381.02 390.455 1380.25 390.902L1341.25 413.449C1340.48 413.897 1339.52 413.897 1338.75 413.449L1299.75 390.902C1298.98 390.455 1298.5 389.631 1298.5 388.738V343.637C1298.5 342.744 1298.98 341.92 1299.75 341.473L1338.75 318.926Z" fill="white" stroke="#EDE9FE"/>
<path d="M1421.75 318.926C1422.52 318.478 1423.48 318.478 1424.25 318.926L1463.25 341.473C1464.02 341.92 1464.5 342.744 1464.5 343.637V388.738C1464.5 389.631 1464.02 390.455 1463.25 390.902L1424.25 413.449C1423.48 413.897 1422.52 413.897 1421.75 413.449L1382.75 390.902C1381.98 390.455 1381.5 389.631 1381.5 388.738V343.637C1381.5 342.744 1381.98 341.92 1382.75 341.473L1421.75 318.926Z" fill="white" stroke="#EDE9FE"/>
<path d="M52.2487 390.051C53.0229 389.603 53.9771 389.603 54.7513 390.051L93.7513 412.598C94.524 413.045 95 413.869 95 414.762V459.863C95 460.756 94.524 461.58 93.7513 462.027L54.7513 484.574C53.9771 485.022 53.0229 485.022 52.2487 484.574L13.2487 462.027C12.4759 461.58 12 460.756 12 459.863V414.762C12 413.869 12.4759 413.045 13.2487 412.598L52.2487 390.051Z" fill="white" stroke="#EDE9FE"/>
<path d="M135.249 390.051C136.023 389.603 136.977 389.603 137.751 390.051L176.751 412.598C177.524 413.045 178 413.869 178 414.762V459.863C178 460.756 177.524 461.58 176.751 462.027L137.751 484.574C136.977 485.022 136.023 485.022 135.249 484.574L96.2487 462.027C95.4759 461.58 95 460.756 95 459.863V414.762C95 413.869 95.4759 413.045 96.2487 412.598L135.249 390.051Z" fill="white" stroke="#EDE9FE"/>
<path d="M218.249 390.051C219.023 389.603 219.977 389.603 220.751 390.051L259.751 412.598C260.524 413.045 261 413.869 261 414.762V459.863C261 460.756 260.524 461.58 259.751 462.027L220.751 484.574C219.977 485.022 219.023 485.022 218.249 484.574L179.249 462.027C178.476 461.58 178 460.756 178 459.863V414.762C178 413.869 178.476 413.045 179.249 412.598L218.249 390.051Z" fill="white" stroke="#EDE9FE"/>
<path d="M301.249 390.051C302.023 389.603 302.977 389.603 303.751 390.051L342.751 412.598C343.524 413.045 344 413.869 344 414.762V459.863C344 460.756 343.524 461.58 342.751 462.027L303.751 484.574C302.977 485.022 302.023 485.022 301.249 484.574L262.249 462.027C261.476 461.58 261 460.756 261 459.863V414.762C261 413.869 261.476 413.045 262.249 412.598L301.249 390.051Z" fill="white" stroke="#EDE9FE"/>
<path d="M384.249 390.051C385.023 389.603 385.977 389.603 386.751 390.051L425.751 412.598C426.524 413.045 427 413.869 427 414.762V459.863C427 460.756 426.524 461.58 425.751 462.027L386.751 484.574C385.977 485.022 385.023 485.022 384.249 484.574L345.249 462.027C344.476 461.58 344 460.756 344 459.863V414.762C344 413.869 344.476 413.045 345.249 412.598L384.249 390.051Z" fill="white" stroke="#EDE9FE"/>
<path d="M467.249 390.051C468.023 389.603 468.977 389.603 469.751 390.051L508.751 412.598C509.524 413.045 510 413.869 510 414.762V459.863C510 460.756 509.524 461.58 508.751 462.027L469.751 484.574C468.977 485.022 468.023 485.022 467.249 484.574L428.249 462.027C427.476 461.58 427 460.756 427 459.863V414.762C427 413.869 427.476 413.045 428.249 412.598L467.249 390.051Z" fill="white" stroke="#EDE9FE"/>
<path d="M550.249 390.051C551.023 389.603 551.977 389.603 552.751 390.051L591.751 412.598C592.524 413.045 593 413.869 593 414.762V459.863C593 460.756 592.524 461.58 591.751 462.027L552.751 484.574C551.977 485.022 551.023 485.022 550.249 484.574L511.249 462.027C510.476 461.58 510 460.756 510 459.863V414.762C510 413.869 510.476 413.045 511.249 412.598L550.249 390.051Z" fill="white" stroke="#EDE9FE"/>
<path d="M633.249 390.051C634.023 389.603 634.977 389.603 635.751 390.051L674.751 412.598C675.524 413.045 676 413.869 676 414.762V459.863C676 460.756 675.524 461.58 674.751 462.027L635.751 484.574C634.977 485.022 634.023 485.022 633.249 484.574L594.249 462.027C593.476 461.58 593 460.756 593 459.863V414.762C593 413.869 593.476 413.045 594.249 412.598L633.249 390.051Z" fill="white" stroke="#EDE9FE"/>
<path d="M716.249 390.051C717.023 389.603 717.977 389.603 718.751 390.051L757.751 412.598C758.524 413.045 759 413.869 759 414.762V459.863C759 460.756 758.524 461.58 757.751 462.027L718.751 484.574C717.977 485.022 717.023 485.022 716.249 484.574L677.249 462.027C676.476 461.58 676 460.756 676 459.863V414.762C676 413.869 676.476 413.045 677.249 412.598L716.249 390.051Z" fill="white" stroke="#EDE9FE"/>
<path d="M799.249 390.051C800.023 389.603 800.977 389.603 801.751 390.051L840.751 412.598C841.524 413.045 842 413.869 842 414.762V459.863C842 460.756 841.524 461.58 840.751 462.027L801.751 484.574C800.977 485.022 800.023 485.022 799.249 484.574L760.249 462.027C759.476 461.58 759 460.756 759 459.863V414.762C759 413.869 759.476 413.045 760.249 412.598L799.249 390.051Z" fill="white" stroke="#EDE9FE"/>
<path d="M882.249 390.051C883.023 389.603 883.977 389.603 884.751 390.051L923.751 412.598C924.524 413.045 925 413.869 925 414.762V459.863C925 460.756 924.524 461.58 923.751 462.027L884.751 484.574C883.977 485.022 883.023 485.022 882.249 484.574L843.249 462.027C842.476 461.58 842 460.756 842 459.863V414.762C842 413.869 842.476 413.045 843.249 412.598L882.249 390.051Z" fill="white" stroke="#EDE9FE"/>
<path d="M965.249 390.051C966.023 389.603 966.977 389.603 967.751 390.051L1006.75 412.598C1007.52 413.045 1008 413.869 1008 414.762V459.863C1008 460.756 1007.52 461.58 1006.75 462.027L967.751 484.574C966.977 485.022 966.023 485.022 965.249 484.574L926.249 462.027C925.476 461.58 925 460.756 925 459.863V414.762C925 413.869 925.476 413.045 926.249 412.598L965.249 390.051Z" fill="white" stroke="#EDE9FE"/>
<path d="M1048.25 390.051C1049.02 389.603 1049.98 389.603 1050.75 390.051L1089.75 412.598C1090.52 413.045 1091 413.869 1091 414.762V459.863C1091 460.756 1090.52 461.58 1089.75 462.027L1050.75 484.574C1049.98 485.022 1049.02 485.022 1048.25 484.574L1009.25 462.027C1008.48 461.58 1008 460.756 1008 459.863V414.762C1008 413.869 1008.48 413.045 1009.25 412.598L1048.25 390.051Z" fill="white" stroke="#EDE9FE"/>
<path d="M1131.25 390.051C1132.02 389.603 1132.98 389.603 1133.75 390.051L1172.75 412.598C1173.52 413.045 1174 413.869 1174 414.762V459.863C1174 460.756 1173.52 461.58 1172.75 462.027L1133.75 484.574C1132.98 485.022 1132.02 485.022 1131.25 484.574L1092.25 462.027C1091.48 461.58 1091 460.756 1091 459.863V414.762C1091 413.869 1091.48 413.045 1092.25 412.598L1131.25 390.051Z" fill="white" stroke="#EDE9FE"/>
<path d="M1214.25 390.051C1215.02 389.603 1215.98 389.603 1216.75 390.051L1255.75 412.598C1256.52 413.045 1257 413.869 1257 414.762V459.863C1257 460.756 1256.52 461.58 1255.75 462.027L1216.75 484.574C1215.98 485.022 1215.02 485.022 1214.25 484.574L1175.25 462.027C1174.48 461.58 1174 460.756 1174 459.863V414.762C1174 413.869 1174.48 413.045 1175.25 412.598L1214.25 390.051Z" fill="white" stroke="#EDE9FE"/>
<path d="M1297.25 390.051C1298.02 389.603 1298.98 389.603 1299.75 390.051L1338.75 412.598C1339.52 413.045 1340 413.869 1340 414.762V459.863C1340 460.756 1339.52 461.58 1338.75 462.027L1299.75 484.574C1298.98 485.022 1298.02 485.022 1297.25 484.574L1258.25 462.027C1257.48 461.58 1257 460.756 1257 459.863V414.762C1257 413.869 1257.48 413.045 1258.25 412.598L1297.25 390.051Z" fill="white" stroke="#EDE9FE"/>
<path d="M1380.25 390.051C1381.02 389.603 1381.98 389.603 1382.75 390.051L1421.75 412.598C1422.52 413.045 1423 413.869 1423 414.762V459.863C1423 460.756 1422.52 461.58 1421.75 462.027L1382.75 484.574C1381.98 485.022 1381.02 485.022 1380.25 484.574L1341.25 462.027C1340.48 461.58 1340 460.756 1340 459.863V414.762C1340 413.869 1340.48 413.045 1341.25 412.598L1380.25 390.051Z" fill="white" stroke="#EDE9FE"/>
<path d="M1463.25 390.051C1464.02 389.603 1464.98 389.603 1465.75 390.051L1504.75 412.598C1505.52 413.045 1506 413.869 1506 414.762V459.863C1506 460.756 1505.52 461.58 1504.75 462.027L1465.75 484.574C1464.98 485.022 1464.02 485.022 1463.25 484.574L1424.25 462.027C1423.48 461.58 1423 460.756 1423 459.863V414.762C1423 413.869 1423.48 413.045 1424.25 412.598L1463.25 390.051Z" fill="white" stroke="#EDE9FE"/>
<path d="M10.7487 461.176C11.5229 460.728 12.4771 460.728 13.2513 461.176L52.2513 483.723C53.024 484.17 53.5 484.994 53.5 485.887V530.988C53.5 531.881 53.024 532.705 52.2513 533.152L13.2513 555.699C12.4771 556.147 11.5229 556.147 10.7487 555.699L-28.2513 533.152C-29.0241 532.705 -29.5 531.881 -29.5 530.988V485.887C-29.5 484.994 -29.0241 484.17 -28.2513 483.723L10.7487 461.176Z" fill="white" stroke="#EDE9FE"/>
<path d="M93.7487 461.176C94.5229 460.728 95.4771 460.728 96.2513 461.176L135.251 483.723C136.024 484.17 136.5 484.994 136.5 485.887V530.988C136.5 531.881 136.024 532.705 135.251 533.152L96.2513 555.699C95.4771 556.147 94.5229 556.147 93.7487 555.699L54.7487 533.152C53.9759 532.705 53.5 531.881 53.5 530.988V485.887C53.5 484.994 53.9759 484.17 54.7487 483.723L93.7487 461.176Z" fill="white" stroke="#EDE9FE"/>
<path d="M176.749 461.176C177.523 460.728 178.477 460.728 179.251 461.176L218.251 483.723C219.024 484.17 219.5 484.994 219.5 485.887V530.988C219.5 531.881 219.024 532.705 218.251 533.152L179.251 555.699C178.477 556.147 177.523 556.147 176.749 555.699L137.749 533.152C136.976 532.705 136.5 531.881 136.5 530.988V485.887C136.5 484.994 136.976 484.17 137.749 483.723L176.749 461.176Z" fill="white" stroke="#EDE9FE"/>
<path d="M259.749 461.176C260.523 460.728 261.477 460.728 262.251 461.176L301.251 483.723C302.024 484.17 302.5 484.994 302.5 485.887V530.988C302.5 531.881 302.024 532.705 301.251 533.152L262.251 555.699C261.477 556.147 260.523 556.147 259.749 555.699L220.749 533.152C219.976 532.705 219.5 531.881 219.5 530.988V485.887C219.5 484.994 219.976 484.17 220.749 483.723L259.749 461.176Z" fill="white" stroke="#EDE9FE"/>
<path d="M342.749 461.176C343.523 460.728 344.477 460.728 345.251 461.176L384.251 483.723C385.024 484.17 385.5 484.994 385.5 485.887V530.988C385.5 531.881 385.024 532.705 384.251 533.152L345.251 555.699C344.477 556.147 343.523 556.147 342.749 555.699L303.749 533.152C302.976 532.705 302.5 531.881 302.5 530.988V485.887C302.5 484.994 302.976 484.17 303.749 483.723L342.749 461.176Z" fill="white" stroke="#EDE9FE"/>
<path d="M425.749 461.176C426.523 460.728 427.477 460.728 428.251 461.176L467.251 483.723C468.024 484.17 468.5 484.994 468.5 485.887V530.988C468.5 531.881 468.024 532.705 467.251 533.152L428.251 555.699C427.477 556.147 426.523 556.147 425.749 555.699L386.749 533.152C385.976 532.705 385.5 531.881 385.5 530.988V485.887C385.5 484.994 385.976 484.17 386.749 483.723L425.749 461.176Z" fill="white" stroke="#EDE9FE"/>
<path d="M508.749 461.176C509.523 460.728 510.477 460.728 511.251 461.176L550.251 483.723C551.024 484.17 551.5 484.994 551.5 485.887V530.988C551.5 531.881 551.024 532.705 550.251 533.152L511.251 555.699C510.477 556.147 509.523 556.147 508.749 555.699L469.749 533.152C468.976 532.705 468.5 531.881 468.5 530.988V485.887C468.5 484.994 468.976 484.17 469.749 483.723L508.749 461.176Z" fill="white" stroke="#EDE9FE"/>
<path d="M591.749 461.176C592.523 460.728 593.477 460.728 594.251 461.176L633.251 483.723C634.024 484.17 634.5 484.994 634.5 485.887V530.988C634.5 531.881 634.024 532.705 633.251 533.152L594.251 555.699C593.477 556.147 592.523 556.147 591.749 555.699L552.749 533.152C551.976 532.705 551.5 531.881 551.5 530.988V485.887C551.5 484.994 551.976 484.17 552.749 483.723L591.749 461.176Z" fill="white" stroke="#EDE9FE"/>
<path d="M674.749 461.176C675.523 460.728 676.477 460.728 677.251 461.176L716.251 483.723C717.024 484.17 717.5 484.994 717.5 485.887V530.988C717.5 531.881 717.024 532.705 716.251 533.152L677.251 555.699C676.477 556.147 675.523 556.147 674.749 555.699L635.749 533.152C634.976 532.705 634.5 531.881 634.5 530.988V485.887C634.5 484.994 634.976 484.17 635.749 483.723L674.749 461.176Z" fill="white" stroke="#EDE9FE"/>
<path d="M757.749 461.176C758.523 460.728 759.477 460.728 760.251 461.176L799.251 483.723C800.024 484.17 800.5 484.994 800.5 485.887V530.988C800.5 531.881 800.024 532.705 799.251 533.152L760.251 555.699C759.477 556.147 758.523 556.147 757.749 555.699L718.749 533.152C717.976 532.705 717.5 531.881 717.5 530.988V485.887C717.5 484.994 717.976 484.17 718.749 483.723L757.749 461.176Z" fill="white" stroke="#EDE9FE"/>
<path d="M840.749 461.176C841.523 460.728 842.477 460.728 843.251 461.176L882.251 483.723C883.024 484.17 883.5 484.994 883.5 485.887V530.988C883.5 531.881 883.024 532.705 882.251 533.152L843.251 555.699C842.477 556.147 841.523 556.147 840.749 555.699L801.749 533.152C800.976 532.705 800.5 531.881 800.5 530.988V485.887C800.5 484.994 800.976 484.17 801.749 483.723L840.749 461.176Z" fill="white" stroke="#EDE9FE"/>
<path d="M923.749 461.176C924.523 460.728 925.477 460.728 926.251 461.176L965.251 483.723C966.024 484.17 966.5 484.994 966.5 485.887V530.988C966.5 531.881 966.024 532.705 965.251 533.152L926.251 555.699C925.477 556.147 924.523 556.147 923.749 555.699L884.749 533.152C883.976 532.705 883.5 531.881 883.5 530.988V485.887C883.5 484.994 883.976 484.17 884.749 483.723L923.749 461.176Z" fill="white" stroke="#EDE9FE"/>
<path d="M1006.75 461.176C1007.52 460.728 1008.48 460.728 1009.25 461.176L1048.25 483.723C1049.02 484.17 1049.5 484.994 1049.5 485.887V530.988C1049.5 531.881 1049.02 532.705 1048.25 533.152L1009.25 555.699C1008.48 556.147 1007.52 556.147 1006.75 555.699L967.749 533.152C966.976 532.705 966.5 531.881 966.5 530.988V485.887C966.5 484.994 966.976 484.17 967.749 483.723L1006.75 461.176Z" fill="white" stroke="#EDE9FE"/>
<path d="M1089.75 461.176C1090.52 460.728 1091.48 460.728 1092.25 461.176L1131.25 483.723C1132.02 484.17 1132.5 484.994 1132.5 485.887V530.988C1132.5 531.881 1132.02 532.705 1131.25 533.152L1092.25 555.699C1091.48 556.147 1090.52 556.147 1089.75 555.699L1050.75 533.152C1049.98 532.705 1049.5 531.881 1049.5 530.988V485.887C1049.5 484.994 1049.98 484.17 1050.75 483.723L1089.75 461.176Z" fill="white" stroke="#EDE9FE"/>
<path d="M1172.75 461.176C1173.52 460.728 1174.48 460.728 1175.25 461.176L1214.25 483.723C1215.02 484.17 1215.5 484.994 1215.5 485.887V530.988C1215.5 531.881 1215.02 532.705 1214.25 533.152L1175.25 555.699C1174.48 556.147 1173.52 556.147 1172.75 555.699L1133.75 533.152C1132.98 532.705 1132.5 531.881 1132.5 530.988V485.887C1132.5 484.994 1132.98 484.17 1133.75 483.723L1172.75 461.176Z" fill="white" stroke="#EDE9FE"/>
<path d="M1255.75 461.176C1256.52 460.728 1257.48 460.728 1258.25 461.176L1297.25 483.723C1298.02 484.17 1298.5 484.994 1298.5 485.887V530.988C1298.5 531.881 1298.02 532.705 1297.25 533.152L1258.25 555.699C1257.48 556.147 1256.52 556.147 1255.75 555.699L1216.75 533.152C1215.98 532.705 1215.5 531.881 1215.5 530.988V485.887C1215.5 484.994 1215.98 484.17 1216.75 483.723L1255.75 461.176Z" fill="white" stroke="#EDE9FE"/>
<path d="M1338.75 461.176C1339.52 460.728 1340.48 460.728 1341.25 461.176L1380.25 483.723C1381.02 484.17 1381.5 484.994 1381.5 485.887V530.988C1381.5 531.881 1381.02 532.705 1380.25 533.152L1341.25 555.699C1340.48 556.147 1339.52 556.147 1338.75 555.699L1299.75 533.152C1298.98 532.705 1298.5 531.881 1298.5 530.988V485.887C1298.5 484.994 1298.98 484.17 1299.75 483.723L1338.75 461.176Z" fill="white" stroke="#EDE9FE"/>
<path d="M1421.75 461.176C1422.52 460.728 1423.48 460.728 1424.25 461.176L1463.25 483.723C1464.02 484.17 1464.5 484.994 1464.5 485.887V530.988C1464.5 531.881 1464.02 532.705 1463.25 533.152L1424.25 555.699C1423.48 556.147 1422.52 556.147 1421.75 555.699L1382.75 533.152C1381.98 532.705 1381.5 531.881 1381.5 530.988V485.887C1381.5 484.994 1381.98 484.17 1382.75 483.723L1421.75 461.176Z" fill="white" stroke="#EDE9FE"/>
<path d="M52.2487 532.301C53.0229 531.853 53.9771 531.853 54.7513 532.301L93.7513 554.848C94.524 555.295 95 556.119 95 557.012V602.113C95 603.006 94.524 603.83 93.7513 604.277L54.7513 626.824C53.9771 627.272 53.0229 627.272 52.2487 626.824L13.2487 604.277C12.4759 603.83 12 603.006 12 602.113V557.012C12 556.119 12.4759 555.295 13.2487 554.848L52.2487 532.301Z" fill="white" stroke="#EDE9FE"/>
<path d="M135.249 532.301C136.023 531.853 136.977 531.853 137.751 532.301L176.751 554.848C177.524 555.295 178 556.119 178 557.012V602.113C178 603.006 177.524 603.83 176.751 604.277L137.751 626.824C136.977 627.272 136.023 627.272 135.249 626.824L96.2487 604.277C95.4759 603.83 95 603.006 95 602.113V557.012C95 556.119 95.4759 555.295 96.2487 554.848L135.249 532.301Z" fill="white" stroke="#EDE9FE"/>
<path d="M218.249 532.301C219.023 531.853 219.977 531.853 220.751 532.301L259.751 554.848C260.524 555.295 261 556.119 261 557.012V602.113C261 603.006 260.524 603.83 259.751 604.277L220.751 626.824C219.977 627.272 219.023 627.272 218.249 626.824L179.249 604.277C178.476 603.83 178 603.006 178 602.113V557.012C178 556.119 178.476 555.295 179.249 554.848L218.249 532.301Z" fill="white" stroke="#EDE9FE"/>
<path d="M301.249 532.301C302.023 531.853 302.977 531.853 303.751 532.301L342.751 554.848C343.524 555.295 344 556.119 344 557.012V602.113C344 603.006 343.524 603.83 342.751 604.277L303.751 626.824C302.977 627.272 302.023 627.272 301.249 626.824L262.249 604.277C261.476 603.83 261 603.006 261 602.113V557.012C261 556.119 261.476 555.295 262.249 554.848L301.249 532.301Z" fill="white" stroke="#EDE9FE"/>
<path d="M384.249 532.301C385.023 531.853 385.977 531.853 386.751 532.301L425.751 554.848C426.524 555.295 427 556.119 427 557.012V602.113C427 603.006 426.524 603.83 425.751 604.277L386.751 626.824C385.977 627.272 385.023 627.272 384.249 626.824L345.249 604.277C344.476 603.83 344 603.006 344 602.113V557.012C344 556.119 344.476 555.295 345.249 554.848L384.249 532.301Z" fill="white" stroke="#EDE9FE"/>
<path d="M467.249 532.301C468.023 531.853 468.977 531.853 469.751 532.301L508.751 554.848C509.524 555.295 510 556.119 510 557.012V602.113C510 603.006 509.524 603.83 508.751 604.277L469.751 626.824C468.977 627.272 468.023 627.272 467.249 626.824L428.249 604.277C427.476 603.83 427 603.006 427 602.113V557.012C427 556.119 427.476 555.295 428.249 554.848L467.249 532.301Z" fill="white" stroke="#EDE9FE"/>
<path d="M550.249 532.301C551.023 531.853 551.977 531.853 552.751 532.301L591.751 554.848C592.524 555.295 593 556.119 593 557.012V602.113C593 603.006 592.524 603.83 591.751 604.277L552.751 626.824C551.977 627.272 551.023 627.272 550.249 626.824L511.249 604.277C510.476 603.83 510 603.006 510 602.113V557.012C510 556.119 510.476 555.295 511.249 554.848L550.249 532.301Z" fill="white" stroke="#EDE9FE"/>
<path d="M633.249 532.301C634.023 531.853 634.977 531.853 635.751 532.301L674.751 554.848C675.524 555.295 676 556.119 676 557.012V602.113C676 603.006 675.524 603.83 674.751 604.277L635.751 626.824C634.977 627.272 634.023 627.272 633.249 626.824L594.249 604.277C593.476 603.83 593 603.006 593 602.113V557.012C593 556.119 593.476 555.295 594.249 554.848L633.249 532.301Z" fill="white" stroke="#EDE9FE"/>
<path d="M716.249 532.301C717.023 531.853 717.977 531.853 718.751 532.301L757.751 554.848C758.524 555.295 759 556.119 759 557.012V602.113C759 603.006 758.524 603.83 757.751 604.277L718.751 626.824C717.977 627.272 717.023 627.272 716.249 626.824L677.249 604.277C676.476 603.83 676 603.006 676 602.113V557.012C676 556.119 676.476 555.295 677.249 554.848L716.249 532.301Z" fill="white" stroke="#EDE9FE"/>
<path d="M799.249 532.301C800.023 531.853 800.977 531.853 801.751 532.301L840.751 554.848C841.524 555.295 842 556.119 842 557.012V602.113C842 603.006 841.524 603.83 840.751 604.277L801.751 626.824C800.977 627.272 800.023 627.272 799.249 626.824L760.249 604.277C759.476 603.83 759 603.006 759 602.113V557.012C759 556.119 759.476 555.295 760.249 554.848L799.249 532.301Z" fill="white" stroke="#EDE9FE"/>
<path d="M882.249 532.301C883.023 531.853 883.977 531.853 884.751 532.301L923.751 554.848C924.524 555.295 925 556.119 925 557.012V602.113C925 603.006 924.524 603.83 923.751 604.277L884.751 626.824C883.977 627.272 883.023 627.272 882.249 626.824L843.249 604.277C842.476 603.83 842 603.006 842 602.113V557.012C842 556.119 842.476 555.295 843.249 554.848L882.249 532.301Z" fill="white" stroke="#EDE9FE"/>
<path d="M965.249 532.301C966.023 531.853 966.977 531.853 967.751 532.301L1006.75 554.848C1007.52 555.295 1008 556.119 1008 557.012V602.113C1008 603.006 1007.52 603.83 1006.75 604.277L967.751 626.824C966.977 627.272 966.023 627.272 965.249 626.824L926.249 604.277C925.476 603.83 925 603.006 925 602.113V557.012C925 556.119 925.476 555.295 926.249 554.848L965.249 532.301Z" fill="white" stroke="#EDE9FE"/>
<path d="M1048.25 532.301C1049.02 531.853 1049.98 531.853 1050.75 532.301L1089.75 554.848C1090.52 555.295 1091 556.119 1091 557.012V602.113C1091 603.006 1090.52 603.83 1089.75 604.277L1050.75 626.824C1049.98 627.272 1049.02 627.272 1048.25 626.824L1009.25 604.277C1008.48 603.83 1008 603.006 1008 602.113V557.012C1008 556.119 1008.48 555.295 1009.25 554.848L1048.25 532.301Z" fill="white" stroke="#EDE9FE"/>
<path d="M1131.25 532.301C1132.02 531.853 1132.98 531.853 1133.75 532.301L1172.75 554.848C1173.52 555.295 1174 556.119 1174 557.012V602.113C1174 603.006 1173.52 603.83 1172.75 604.277L1133.75 626.824C1132.98 627.272 1132.02 627.272 1131.25 626.824L1092.25 604.277C1091.48 603.83 1091 603.006 1091 602.113V557.012C1091 556.119 1091.48 555.295 1092.25 554.848L1131.25 532.301Z" fill="white" stroke="#EDE9FE"/>
<path d="M1214.25 532.301C1215.02 531.853 1215.98 531.853 1216.75 532.301L1255.75 554.848C1256.52 555.295 1257 556.119 1257 557.012V602.113C1257 603.006 1256.52 603.83 1255.75 604.277L1216.75 626.824C1215.98 627.272 1215.02 627.272 1214.25 626.824L1175.25 604.277C1174.48 603.83 1174 603.006 1174 602.113V557.012C1174 556.119 1174.48 555.295 1175.25 554.848L1214.25 532.301Z" fill="white" stroke="#EDE9FE"/>
<path d="M1297.25 532.301C1298.02 531.853 1298.98 531.853 1299.75 532.301L1338.75 554.848C1339.52 555.295 1340 556.119 1340 557.012V602.113C1340 603.006 1339.52 603.83 1338.75 604.277L1299.75 626.824C1298.98 627.272 1298.02 627.272 1297.25 626.824L1258.25 604.277C1257.48 603.83 1257 603.006 1257 602.113V557.012C1257 556.119 1257.48 555.295 1258.25 554.848L1297.25 532.301Z" fill="white" stroke="#EDE9FE"/>
<path d="M1380.25 532.301C1381.02 531.853 1381.98 531.853 1382.75 532.301L1421.75 554.848C1422.52 555.295 1423 556.119 1423 557.012V602.113C1423 603.006 1422.52 603.83 1421.75 604.277L1382.75 626.824C1381.98 627.272 1381.02 627.272 1380.25 626.824L1341.25 604.277C1340.48 603.83 1340 603.006 1340 602.113V557.012C1340 556.119 1340.48 555.295 1341.25 554.848L1380.25 532.301Z" fill="white" stroke="#EDE9FE"/>
<path d="M1463.25 532.301C1464.02 531.853 1464.98 531.853 1465.75 532.301L1504.75 554.848C1505.52 555.295 1506 556.119 1506 557.012V602.113C1506 603.006 1505.52 603.83 1504.75 604.277L1465.75 626.824C1464.98 627.272 1464.02 627.272 1463.25 626.824L1424.25 604.277C1423.48 603.83 1423 603.006 1423 602.113V557.012C1423 556.119 1423.48 555.295 1424.25 554.848L1463.25 532.301Z" fill="white" stroke="#EDE9FE"/>
</g>
<defs>
<linearGradient id="paint0_linear_6907_192562" x1="726.5" y1="-38" x2="726.5" y2="592" gradientUnits="userSpaceOnUse">
<stop stop-color="#2563EB"/>
<stop offset="0.706076" stop-color="#6246EC" stop-opacity="0"/>
<stop offset="1" stop-color="#7C3AED" stop-opacity="0"/>
</linearGradient>
</defs>
</svg>
