<svg xmlns="http://www.w3.org/2000/svg" xmlns:xlink="http://www.w3.org/1999/xlink" width="2985.182" height="511.111" viewBox="0 0 403 69">
  <metadata><?xpacket begin="﻿" id="W5M0MpCehiHzreSzNTczkc9d"?>
<x:xmpmeta xmlns:x="adobe:ns:meta/" x:xmptk="Adobe XMP Core 5.6-c145 79.163499, 2018/08/13-16:40:22        ">
   <rdf:RDF xmlns:rdf="http://www.w3.org/1999/02/22-rdf-syntax-ns#">
      <rdf:Description rdf:about=""
            xmlns:xmp="http://ns.adobe.com/xap/1.0/">
         <xmp:CreatorTool>Adobe Photoshop CC 2019 (Windows)</xmp:CreatorTool>
      </rdf:Description>
   </rdf:RDF>
</x:xmpmeta>
                                                                                                    
                                                                                                    
                                                                                                    
                                                                                                    
                                                                                                    
                                                                                                    
                                                                                                    
                                                                                                    
                                                                                                    
                                                                                                    
                                                                                                    
                                                                                                    
                                                                                                    
                                                                                                    
                                                                                                    
                                                                                                    
                                                                                                    
                                                                                                    
                                                                                                    
                                                                                                    
                           
<?xpacket end="w"?></metadata>
<defs>
    <style>
      .cls-1, .cls-2 {
        fill-rule: evenodd;
      }

      .cls-2 {
        stroke: #fafafa;
        stroke-linejoin: round;
        stroke-width: 1px;
        filter: url(#filter);
      }
    </style>
    <filter id="filter" x="0" y="0" width="403" height="69" filterUnits="userSpaceOnUse">
      <feOffset result="offset" in="SourceAlpha"/>
      <feGaussianBlur result="blur" stdDeviation="2"/>
      <feFlood result="flood" flood-opacity="0.27"/>
      <feComposite result="composite" operator="in" in2="blur"/>
      <feBlend result="blend" in="SourceGraphic"/>
    </filter>
  </defs>
  <path id="reduced.to" class="cls-1" d="M12.23,25.04V20.159h-8.4V64.965h8.4v-22.4a13.932,13.932,0,0,1,14-14,14.765,14.765,0,0,1,5.281,1.04l2.64-8a21.963,21.963,0,0,0-7.921-1.44,21.946,21.946,0,0,0-14,4.881h0Zm55.327,1.72a21.561,21.561,0,0,0-15.8-6.6,21.559,21.559,0,0,0-15.8,6.6,21.561,21.561,0,0,0-6.6,15.8,22.133,22.133,0,0,0,22.4,22.4A31.249,31.249,0,0,0,63,62.8a16.926,16.926,0,0,0,8.361-6.241l-7.2-4.241q-4.722,4.242-12.4,4.241a15.652,15.652,0,0,1-8.921-2.44,11.233,11.233,0,0,1-4.681-7.4h35.6a23.8,23.8,0,0,0,.4-4.16A21.561,21.561,0,0,0,67.557,26.76ZM43.434,31.281a14.087,14.087,0,0,1,16.642,0,13.09,13.09,0,0,1,5.041,7.041H38.393A13.077,13.077,0,0,1,43.434,31.281ZM97.36,20.159A21.587,21.587,0,0,0,81.518,26.72a21.586,21.586,0,0,0-6.561,15.842A21.582,21.582,0,0,0,81.518,58.4,22.33,22.33,0,0,0,111.361,60v4.961h8.4V3.357h-8.4V25.04a21.951,21.951,0,0,0-14-4.881h0ZM87.478,52.443a13.908,13.908,0,0,1,0-19.762,13.962,13.962,0,0,1,23.883,9.881A13.974,13.974,0,0,1,87.478,52.443Zm65.007,0.4a12.038,12.038,0,0,1-8.881,3.72,12.7,12.7,0,0,1-12.641-12.642V20.159h-8.4V43.922a20.271,20.271,0,0,0,6.16,14.882,20.958,20.958,0,0,0,29.684,0,20.276,20.276,0,0,0,6.161-14.882V20.159h-8.4V43.922A12.236,12.236,0,0,1,152.485,52.843Zm24.563-.36a13.5,13.5,0,0,1-4.081-9.921,13.933,13.933,0,0,1,14-14,13.67,13.67,0,0,1,7.441,2.12,13.928,13.928,0,0,1,5.121,5.641l7.44-3.76a22.311,22.311,0,0,0-8.161-9,22.391,22.391,0,0,0-34.244,19A21.583,21.583,0,0,0,171.127,58.4a22.37,22.37,0,0,0,27.683,3.16,22.294,22.294,0,0,0,8.161-9l-7.44-3.761a13.912,13.912,0,0,1-5.121,5.641,13.66,13.66,0,0,1-7.441,2.12A13.5,13.5,0,0,1,177.048,52.483ZM245.176,26.76a22.215,22.215,0,0,0-31.6,0,21.563,21.563,0,0,0-6.6,15.8,22.133,22.133,0,0,0,22.4,22.4,31.255,31.255,0,0,0,11.242-2.16,16.928,16.928,0,0,0,8.361-6.241l-7.2-4.241q-4.722,4.242-12.4,4.241a15.654,15.654,0,0,1-8.921-2.44,11.234,11.234,0,0,1-4.681-7.4h35.605a23.825,23.825,0,0,0,.4-4.16A21.559,21.559,0,0,0,245.176,26.76Zm-24.123,4.521a14.087,14.087,0,0,1,16.642,0,13.089,13.089,0,0,1,5.041,7.041H216.012A13.079,13.079,0,0,1,221.053,31.281Zm53.926-11.121a21.587,21.587,0,0,0-15.842,6.561,21.587,21.587,0,0,0-6.561,15.842A21.583,21.583,0,0,0,259.137,58.4,22.331,22.331,0,0,0,288.981,60v4.961h8.4V3.357h-8.4V25.04a21.951,21.951,0,0,0-14-4.881h0ZM265.1,52.443a13.907,13.907,0,0,1,0-19.762,13.962,13.962,0,0,1,23.883,9.881A13.974,13.974,0,0,1,265.1,52.443Zm45.485,2.44a5.053,5.053,0,1,0,3.56,1.48A4.856,4.856,0,0,0,310.583,54.884Zm41.524-.8a10.919,10.919,0,0,1-2.68,1.28,11.242,11.242,0,0,1-3.8.64h-0.8a7.912,7.912,0,0,1-1.96-.52,13.327,13.327,0,0,1-2.32-1.16,5.5,5.5,0,0,1-1.96-2.36,8.558,8.558,0,0,1-.8-3.8V28.56h15.122v-8.4H337.785V8.958h-8.4v11.2h-5.6v8.4h5.6v22.4a13.933,13.933,0,0,0,14,14,20.952,20.952,0,0,0,6.4-.92,15.434,15.434,0,0,0,3.64-1.48,10.445,10.445,0,0,0,1.161-.96l-1.681-8.241Zm1.28-11.521A21.579,21.579,0,0,0,359.948,58.4a22.407,22.407,0,0,0,31.684,0,21.586,21.586,0,0,0,6.56-15.842,21.59,21.59,0,0,0-6.56-15.842,22.407,22.407,0,0,0-31.684,0A21.583,21.583,0,0,0,353.387,42.562Zm8.4,0a14,14,0,1,1,28,0A14,14,0,1,1,361.788,42.562Z"/>
  <g style="fill: ; filter: url(#filter)">
    <path id="reduced.to-2" data-name="reduced.to" class="cls-2" d="M12.23,25.04V20.159h-8.4V64.965h8.4v-22.4a13.932,13.932,0,0,1,14-14,14.765,14.765,0,0,1,5.281,1.04l2.64-8a21.963,21.963,0,0,0-7.921-1.44,21.946,21.946,0,0,0-14,4.881h0Zm55.327,1.72a21.561,21.561,0,0,0-15.8-6.6,21.559,21.559,0,0,0-15.8,6.6,21.561,21.561,0,0,0-6.6,15.8,22.133,22.133,0,0,0,22.4,22.4A31.249,31.249,0,0,0,63,62.8a16.926,16.926,0,0,0,8.361-6.241l-7.2-4.241q-4.722,4.242-12.4,4.241a15.652,15.652,0,0,1-8.921-2.44,11.233,11.233,0,0,1-4.681-7.4h35.6a23.8,23.8,0,0,0,.4-4.16A21.561,21.561,0,0,0,67.557,26.76ZM43.434,31.281a14.087,14.087,0,0,1,16.642,0,13.09,13.09,0,0,1,5.041,7.041H38.393A13.077,13.077,0,0,1,43.434,31.281ZM97.36,20.159A21.587,21.587,0,0,0,81.518,26.72a21.586,21.586,0,0,0-6.561,15.842A21.582,21.582,0,0,0,81.518,58.4,22.33,22.33,0,0,0,111.361,60v4.961h8.4V3.357h-8.4V25.04a21.951,21.951,0,0,0-14-4.881h0ZM87.478,52.443a13.908,13.908,0,0,1,0-19.762,13.962,13.962,0,0,1,23.883,9.881A13.974,13.974,0,0,1,87.478,52.443Zm65.007,0.4a12.038,12.038,0,0,1-8.881,3.72,12.7,12.7,0,0,1-12.641-12.642V20.159h-8.4V43.922a20.271,20.271,0,0,0,6.16,14.882,20.958,20.958,0,0,0,29.684,0,20.276,20.276,0,0,0,6.161-14.882V20.159h-8.4V43.922A12.236,12.236,0,0,1,152.485,52.843Zm24.563-.36a13.5,13.5,0,0,1-4.081-9.921,13.933,13.933,0,0,1,14-14,13.67,13.67,0,0,1,7.441,2.12,13.928,13.928,0,0,1,5.121,5.641l7.44-3.76a22.311,22.311,0,0,0-8.161-9,22.391,22.391,0,0,0-34.244,19A21.583,21.583,0,0,0,171.127,58.4a22.37,22.37,0,0,0,27.683,3.16,22.294,22.294,0,0,0,8.161-9l-7.44-3.761a13.912,13.912,0,0,1-5.121,5.641,13.66,13.66,0,0,1-7.441,2.12A13.5,13.5,0,0,1,177.048,52.483ZM245.176,26.76a22.215,22.215,0,0,0-31.6,0,21.563,21.563,0,0,0-6.6,15.8,22.133,22.133,0,0,0,22.4,22.4,31.255,31.255,0,0,0,11.242-2.16,16.928,16.928,0,0,0,8.361-6.241l-7.2-4.241q-4.722,4.242-12.4,4.241a15.654,15.654,0,0,1-8.921-2.44,11.234,11.234,0,0,1-4.681-7.4h35.605a23.825,23.825,0,0,0,.4-4.16A21.559,21.559,0,0,0,245.176,26.76Zm-24.123,4.521a14.087,14.087,0,0,1,16.642,0,13.089,13.089,0,0,1,5.041,7.041H216.012A13.079,13.079,0,0,1,221.053,31.281Zm53.926-11.121a21.587,21.587,0,0,0-15.842,6.561,21.587,21.587,0,0,0-6.561,15.842A21.583,21.583,0,0,0,259.137,58.4,22.331,22.331,0,0,0,288.981,60v4.961h8.4V3.357h-8.4V25.04a21.951,21.951,0,0,0-14-4.881h0ZM265.1,52.443a13.907,13.907,0,0,1,0-19.762,13.962,13.962,0,0,1,23.883,9.881A13.974,13.974,0,0,1,265.1,52.443Zm45.485,2.44a5.053,5.053,0,1,0,3.56,1.48A4.856,4.856,0,0,0,310.583,54.884Zm41.524-.8a10.919,10.919,0,0,1-2.68,1.28,11.242,11.242,0,0,1-3.8.64h-0.8a7.912,7.912,0,0,1-1.96-.52,13.327,13.327,0,0,1-2.32-1.16,5.5,5.5,0,0,1-1.96-2.36,8.558,8.558,0,0,1-.8-3.8V28.56h15.122v-8.4H337.785V8.958h-8.4v11.2h-5.6v8.4h5.6v22.4a13.933,13.933,0,0,0,14,14,20.952,20.952,0,0,0,6.4-.92,15.434,15.434,0,0,0,3.64-1.48,10.445,10.445,0,0,0,1.161-.96l-1.681-8.241Zm1.28-11.521A21.579,21.579,0,0,0,359.948,58.4a22.407,22.407,0,0,0,31.684,0,21.586,21.586,0,0,0,6.56-15.842,21.59,21.59,0,0,0-6.56-15.842,22.407,22.407,0,0,0-31.684,0A21.583,21.583,0,0,0,353.387,42.562Zm8.4,0a14,14,0,1,1,28,0A14,14,0,1,1,361.788,42.562Z" style="stroke: inherit; filter: none; fill: inherit"/>
  </g>
  <use xlink:href="#reduced.to-2" style="stroke: #fafafa; filter: none; fill: none"/>
</svg>
