<?xml version="1.0" encoding="UTF-8"?>
<svg xmlns="http://www.w3.org/2000/svg" viewBox="0 0 1640 1640">
  <defs>
    <style>
      .cls-1 {
        fill: #272935;
      }

      .cls-2 {
        fill: #dfdfe1;
      }

      .cls-3 {
        fill: #fff;
        stroke: #dfdfe1;
        stroke-miterlimit: 10;
        stroke-width: 80px;
      }
    </style>
  </defs>
  <g id="Layer_1" data-name="Layer 1">
    <circle class="cls-1" cx="820" cy="820" r="820"/>
  </g>
  <g id="Layer_2" data-name="Layer 2">
    <g>
      <path class="cls-2" d="M1117.07,544.66l-23.82-21.07c-55.47-49.19-140.41-44.09-189.58,11.4l-68.16,76.9c-15.38,17.36-13.79,44.01,3.57,59.41l6.4,5.68c17.41,15.44,43.98,13.84,59.43-3.57l68.16-76.9c15.2-17.14,41.54-18.71,58.69-3.54l23.79,21.1c17.15,15.2,18.77,41.53,3.54,58.68l-149.04,168.14c-12.61,14.25-33.26,18.1-50.2,9.34-18.52-9.57-41.12-5.36-54.95,10.24l-1.16,1.31c-9.36,10.55-13.26,24.57-10.7,38.44,2.56,13.87,11.19,25.57,23.69,32.1,19.77,10.33,41.11,15.33,62.25,15.33,37.45,0,74.26-15.7,100.48-45.27l149.03-168.12c49.11-55.41,44-140.46-11.42-189.61Z"/>
      <path class="cls-2" d="M800.89,992.73l-6.41-5.68c-17.37-15.39-44.03-13.77-59.42,3.59l-68.13,76.89c-15.21,17.13-41.53,18.72-58.66,3.55l-23.82-21.13c-17.16-15.19-18.77-41.5-3.54-58.66l149.04-168.12c12.36-13.95,32.69-17.95,49.44-9.71,19.26,9.46,42.64,4.86,56.9-11.23l.54-.6c9.16-10.34,13.01-24.06,10.58-37.65-2.44-13.59-10.81-25.12-22.99-31.63-55.05-29.47-122.42-17.41-163.85,29.33l-149.05,168.09h0c-49.12,55.41-44.01,140.46,11.4,189.59l23.82,21.1c25.52,22.63,57.32,33.74,89.01,33.74,37.12,0,74.09-15.26,100.6-45.15l68.14-76.89c15.42-17.41,13.83-43.97-3.59-59.42Z"/>
    </g>
    <text/>
  </g>
  <g id="Layer_3" data-name="Layer 3">
    <line class="cls-3" x1="133.48" y1="834.57" x2="429.87" y2="523.73"/>
    <line class="cls-3" x1="125.88" y1="786.53" x2="429.87" y2="1117.27"/>
    <text/>
    <line class="cls-3" x1="1506.52" y1="834.07" x2="1210.13" y2="523.23"/>
    <line class="cls-3" x1="1514.12" y1="786.03" x2="1210.13" y2="1116.77"/>
  </g>
</svg>